<svg width="29" height="15" viewBox="0 0 29 15" fill="none" xmlns="http://www.w3.org/2000/svg">
<path d="M1.51172 2.2207H27.1055C27.6797 2.2207 28.1445 1.76953 28.1445 1.19531C28.1445 0.621094 27.6797 0.15625 27.1055 0.15625H1.51172C0.9375 0.15625 0.486328 0.621094 0.486328 1.19531C0.486328 1.76953 0.9375 2.2207 1.51172 2.2207ZM1.51172 8.18164H27.1055C27.6797 8.18164 28.1445 7.73047 28.1445 7.15625C28.1445 6.56836 27.6797 6.10352 27.1055 6.10352H1.51172C0.9375 6.10352 0.486328 6.56836 0.486328 7.15625C0.486328 7.73047 0.9375 8.18164 1.51172 8.18164ZM1.51172 14.1562H27.1055C27.6797 14.1562 28.1445 13.6914 28.1445 13.1035C28.1445 12.5293 27.6797 12.0781 27.1055 12.0781H1.51172C0.9375 12.0781 0.486328 12.5293 0.486328 13.1035C0.486328 13.6914 0.9375 14.1562 1.51172 14.1562Z" fill="white"/>
</svg>
