<svg width="126" height="126" viewBox="0 0 126 126" fill="none" xmlns="http://www.w3.org/2000/svg">
<g clip-path="url(#clip0_85_839)">
<path d="M62.9995 126C97.7932 126 125.999 97.7939 125.999 63C125.999 28.2061 97.7932 0 62.9995 0C28.2058 0 0 28.2061 0 63C0 97.7939 28.2058 126 62.9995 126Z" fill="white"/>
<path fill-rule="evenodd" clip-rule="evenodd" d="M4.93201 90.2879L41.1826 66.5636L43.3548 69.8802L6.2716 94.1504L4.93201 90.2879Z" fill="#00100F"/>
<path fill-rule="evenodd" clip-rule="evenodd" d="M109.847 116.264L66.351 49.8361L69.6825 47.6638L112.644 113.285L109.847 116.264Z" fill="#00100F"/>
<path fill-rule="evenodd" clip-rule="evenodd" d="M84.7436 28.5051L85.0046 28.4134L85.2635 28.3477L85.5364 28.3088L85.7974 28.2959H86.0703L86.3302 28.3228L86.5902 28.3746L86.8372 28.4393L87.0852 28.53L87.3322 28.6475L87.5543 28.778L87.7744 28.9204L87.9826 29.0897L88.1778 29.2839L88.36 29.4931L88.5164 29.7142L88.6718 29.9861L88.8162 30.2859L88.9058 30.5727L88.9716 30.8715L89.0094 31.1843L89.0244 31.4821L89.0094 31.7818L88.9576 32.0806L88.8799 32.3804L88.7764 32.6543L88.6459 32.9402L88.4905 33.1991L88.2933 33.4471L88.0861 33.6682L87.8531 33.8764L87.5921 34.0706L87.3202 34.228L87.0324 34.3704L86.7336 34.462L86.4338 34.5397L86.135 34.5776H85.8233L85.5245 34.5656L85.2257 34.5128L84.9389 34.4481L84.653 34.3435L84.3791 34.214L84.1192 34.0447L83.8722 33.8625L83.6381 33.6553L83.4299 33.4212L83.2347 33.1613L83.0923 32.9262L82.9758 32.6792L82.8842 32.4322L82.8065 32.1842L82.7676 31.9253L82.7278 31.6643V31.4044L82.7407 31.1444L82.7786 30.8845L82.8314 30.6375L82.9091 30.3895L83.0136 30.1425L83.1302 29.9084L83.2736 29.6743L83.4299 29.4662L83.6122 29.259L83.7676 29.0897L84.8213 30.6892L84.7177 30.8586L84.6391 31.0408L84.6002 31.2231L84.5753 31.4183L84.5883 31.6125L84.6281 31.7948L84.6918 31.9771L84.7835 32.1593L84.9518 32.3685L85.147 32.5229L85.3681 32.6394L85.6022 32.7181L85.8502 32.732L86.0962 32.7181L86.3432 32.6394L86.5782 32.5229L86.7864 32.3535L86.9428 32.1593L87.0722 31.9372L87.1499 31.7042L87.1758 31.4562L87.1499 31.2092L87.0852 30.9631L86.9667 30.7291L86.8511 30.5727L86.7077 30.4412L86.5653 30.3377L86.396 30.247L86.2137 30.1952L86.0314 30.1554L85.8502 30.1425L85.655 30.1683L84.6002 28.5698L84.7436 28.5051Z" fill="#00100F"/>
<path fill-rule="evenodd" clip-rule="evenodd" d="M96.6445 30.0129L98.8297 33.3296L82.5714 43.9707L80.3992 40.652L96.6445 30.0129Z" fill="#00100F"/>
<path fill-rule="evenodd" clip-rule="evenodd" d="M90.1288 41.4589L90.1547 41.4459L92.6645 39.7806L93.4713 39.2607L103.812 55.0521L104.358 54.5969L104.891 54.1278L105.386 53.6597L105.868 53.1657L106.309 52.6717L106.739 52.1777L107.128 51.6697L107.506 51.1628L107.843 50.6548L108.157 50.1349L108.43 49.6279L108.691 49.108L108.911 48.6001L109.105 48.0931L109.261 47.5862L109.393 47.0922L107.388 47.6509L108.299 45.2317L109.223 42.7995L110.901 44.5026L112.591 46.2067L110.967 46.6619L111.044 47.2744L111.07 47.8979L111.019 48.5483L110.914 49.1987L110.745 49.874L110.51 50.5642L110.226 51.2534L109.887 51.9556L109.483 52.6458L109.027 53.335L108.533 54.0372L107.975 54.7144L107.377 55.3897L106.726 56.0401L106.037 56.6905L105.295 57.315L105.791 58.0699L102.472 60.2412L101.992 59.526L101.106 59.9812L100.223 60.3846L99.3376 60.7491L98.4661 61.0479L97.5946 61.3079L96.7371 61.5041L95.9035 61.6604L95.0848 61.763L94.291 61.8029H93.5221L92.7821 61.7511L92.066 61.6325L91.4026 61.4772L90.7792 61.269L90.1806 60.9961L89.6467 60.6844L88.4645 61.9981L87.6956 59.7213L86.9287 57.4454L89.5043 57.6924L92.0809 57.9524L90.8827 59.292L91.4026 59.3707L91.9245 59.4225L92.4693 59.4354H93.042L93.6147 59.3966L94.2003 59.3438L94.7989 59.2541L95.4095 59.1356L96.021 58.9922L96.6445 58.8239L97.2819 58.6287L97.9074 58.4075L98.5438 58.1605L99.1942 57.8876L99.8306 57.5749L100.469 57.2502L90.1288 41.4589Z" fill="#00100F"/>
<path fill-rule="evenodd" clip-rule="evenodd" d="M53.4619 68.9441L53.6302 68.4879L53.8254 68.0586L54.0466 67.6304L54.2677 67.213L54.5147 66.8107L54.7756 66.4332L55.0485 66.0557L55.3473 65.6922L55.6461 65.3406L55.9718 65.0149L56.648 64.3904L57.3641 63.8187L58.145 63.3247L58.9497 62.8944L59.7814 62.5309L60.6539 62.2321L61.109 62.1146L61.5512 62.01L62.0203 61.9323L62.4755 61.8676L62.9426 61.8287L63.4127 61.8158H63.8798L64.3609 61.8287L64.831 61.8676L65.311 61.9323L64.0352 66.8754L63.594 66.8625L63.1518 66.8883L62.7105 66.9401L62.2803 67.0318L61.864 67.1483L61.4606 67.2917L61.0702 67.474L60.6927 67.6821L60.3292 67.9162L59.9905 68.1761L59.6659 68.45L59.3541 68.7618L59.0802 69.0994L58.8213 69.45L58.6002 69.8275L58.39 70.2179L53.4619 68.9441Z" fill="#00100F"/>
<path fill-rule="evenodd" clip-rule="evenodd" d="M57.8841 72.0914L57.8582 72.5465V73.0017L57.898 73.4439L57.9757 73.8851L58.0922 74.3154L58.2227 74.7317L58.404 75.148L58.6002 75.5375L58.8342 75.902L59.0922 76.2665L59.38 76.6052L59.6927 76.9169L60.0294 77.2157L60.3949 77.4757L60.7714 77.7237L61.1748 77.9308L59.887 82.8609L59.4308 82.6787L58.9906 82.4835L58.5603 82.2624L58.145 82.0422L57.7406 81.7813L57.3502 81.5213L56.9737 81.2345L56.6082 80.9487L56.2716 80.6369L55.9329 80.3112L55.6073 79.9746L55.3085 79.622L55.0226 79.2585L54.7497 78.881L54.4878 78.4906L54.2537 78.1001L54.0336 77.6968L53.8255 77.2805L53.6302 76.8512L53.4619 76.4229L53.3175 75.9807L53.187 75.5375L53.0715 75.0823L52.9799 74.6281L52.9022 74.159L52.8494 73.6919L52.8106 73.2238L52.7976 72.7418L52.8106 72.2597L52.8374 71.7786L52.8902 71.2966L52.9679 70.8175L57.8841 72.0914Z" fill="#00100F"/>
<path fill-rule="evenodd" clip-rule="evenodd" d="M67.1835 62.4004L67.6516 62.5697L68.0948 62.7649L68.5371 62.9591L68.9663 63.1942L69.3697 63.4282L69.7721 63.6892L70.1615 63.974L70.526 64.2609L70.8905 64.5597L71.2302 64.8854L71.5678 65.224L71.8795 65.5616L72.1803 65.9252L72.4522 66.3037L72.7251 66.6801L72.9721 67.0835L73.1932 67.4869L73.4134 67.8903L73.6096 68.3185L73.7918 68.7488L73.9482 69.191L74.0906 69.6322L74.2081 70.0874L74.3117 70.5426L74.3894 71.0117L74.4561 71.4798L74.494 71.9608L74.5199 72.429V72.911L74.494 73.3921L74.4561 73.8851L74.3894 74.3671L69.4593 73.0923L69.4733 72.6371L69.4593 72.169L69.3956 71.7268L69.304 71.2846L69.1874 70.8563L69.0181 70.44L68.8358 70.0227L68.6157 69.6462L68.3677 69.2687L68.0948 68.9171L67.795 68.5914L67.4574 68.2797L67.1048 67.9938L66.7294 67.7468L66.326 67.5128L65.9097 67.3176L67.1835 62.4004Z" fill="#00100F"/>
<path fill-rule="evenodd" clip-rule="evenodd" d="M73.9222 76.2406L73.7529 76.7087L73.5577 77.1638L73.3496 77.6051L73.1155 78.0353L72.8685 78.4526L72.5966 78.8421L72.3207 79.2325L72.0219 79.61L71.7102 79.9745L71.3855 80.3112L71.0479 80.6368L70.6953 80.9486L70.3188 81.2484L69.9423 81.5342L69.5509 81.7952L69.1485 82.0422L68.7442 82.2752L68.3159 82.4834L67.8866 82.6786L67.4574 82.8489L67.0012 83.0033L66.546 83.1477L66.0899 83.2642L65.6228 83.3559L65.1547 83.4336L64.6736 83.4854L64.2055 83.5242L63.7115 83.5381L63.2284 83.5242L62.7344 83.4983L62.2544 83.4465L61.7604 83.3688L63.0342 78.4526L63.5033 78.4905L63.9844 78.4775L64.4386 78.4387L64.8947 78.361L65.3379 78.2435L65.7791 78.0871L66.1955 77.9049L66.5988 77.6967L66.9753 77.4497L67.3398 77.1768L67.6914 76.865L68.0032 76.5394L68.3029 76.1758L68.5619 75.7983L68.7969 75.395L69.0051 74.9657L73.9222 76.2406Z" fill="#00100F"/>
<path fill-rule="evenodd" clip-rule="evenodd" d="M70.8517 47.1827L71.1644 46.9487L71.4891 46.7276L72.1136 46.375L72.752 46.1031L73.4133 45.8949L74.0786 45.7515L74.7539 45.6868H75.4192L76.0945 45.7386L76.7449 45.8561L77.3952 46.0503L78.0187 46.2844L78.6193 46.5971L79.189 46.9606L79.7228 47.378L80.2298 47.8461L80.686 48.3789L81.0893 48.9646L81.4399 49.588L81.7128 50.2265L81.921 50.8898L82.0644 51.5531L82.1291 52.2294L82.1421 52.9057L82.0913 53.569L81.9728 54.2313L81.7915 54.8697L81.5574 55.4942L81.2576 56.1058L80.8941 56.6775L80.4778 57.2113L80.0087 57.7053L79.4768 58.1734L78.8912 58.5768L78.4729 58.8099L76.1991 55.3508L76.459 55.2343L76.718 55.1038L76.953 54.9345L77.1731 54.7393L77.3693 54.5451L77.5367 54.31L77.693 54.0759L77.8106 53.8289L77.9141 53.569L77.9809 53.309L78.0317 53.0361L78.0446 52.7622V52.4764L78.0187 52.2035L77.954 51.9306L77.8763 51.6577L77.7588 51.3967L77.6154 51.1368L77.447 50.9027L77.2648 50.6816L77.0566 50.4854L76.8355 50.3042L76.6005 50.1607L76.3545 50.0313L76.0945 49.9267L75.8346 49.849L75.5607 49.7972L75.2868 49.7713H75.0009L74.728 49.7972L74.4561 49.8619L74.1812 49.9406L73.9223 50.0571L73.6603 50.1996L73.3745 50.4077L73.1155 50.6428L70.8517 47.1827Z" fill="#00100F"/>
<path fill-rule="evenodd" clip-rule="evenodd" d="M30.205 80.6747L33.5345 78.5034L45.8667 97.3255L42.5361 99.4978L30.205 80.6747Z" fill="#00100F"/>
<path fill-rule="evenodd" clip-rule="evenodd" d="M40.9744 73.6132L44.291 71.4409L56.6082 90.262L53.2916 92.4343L40.9744 73.6132Z" fill="#00100F"/>
<path d="M16.7283 68.207L14.6374 69.568L13.0579 68.6958C12.8072 68.5564 12.6094 68.4949 12.4645 68.5114C12.3226 68.5259 12.1727 68.5846 12.0148 68.6873L13.1978 70.505L11.3437 71.7118L8.19778 66.8784L10.0519 65.6716L11.1875 67.4163C11.3295 67.3023 11.4092 67.1791 11.4268 67.0466C11.4443 66.9141 11.4275 66.6591 11.3764 66.2817C11.3283 65.9022 11.3154 65.6101 11.3378 65.4053C11.3601 65.2005 11.4346 65.0094 11.5612 64.8319C11.6878 64.6543 11.8727 64.4735 12.116 64.2892C12.3592 64.1049 12.7329 63.8487 13.237 63.5206L14.094 64.8371L14.012 64.8905C13.7629 65.0526 13.58 65.1868 13.4633 65.293C13.3445 65.3962 13.2664 65.5054 13.229 65.6206C13.1915 65.7358 13.1854 65.9257 13.2107 66.1903C13.2359 66.4549 13.2393 66.6494 13.2208 66.7739C13.2034 66.8933 13.1368 67.0101 13.021 67.1245C13.2949 66.9807 13.5304 66.9074 13.7274 66.9046C13.9225 66.8987 14.3144 67.0392 14.9033 67.3261L16.7283 68.207ZM16.9 63.4388L15.0063 64.4054C14.8715 64.0522 14.809 63.7469 14.8189 63.4897C14.8298 63.2275 14.9112 62.954 15.0631 62.6693C15.1719 62.4644 15.3583 62.2393 15.6223 61.994C15.8864 61.7486 16.1915 61.5133 16.5377 61.2879C17.0935 60.9262 17.5607 60.6675 17.9393 60.5119C18.3159 60.3532 18.6809 60.2994 19.0341 60.3505C19.281 60.3844 19.532 60.4977 19.7872 60.6905C20.0404 60.8802 20.2411 61.089 20.3894 61.3168L21.78 63.4533C21.9282 63.6811 22.0585 63.8514 22.1709 63.9642C22.2842 64.072 22.4548 64.1945 22.6824 64.3317L20.9422 65.4643C20.7913 65.3853 20.6845 65.3208 20.6217 65.2708C20.557 65.2179 20.4685 65.1284 20.3563 65.0026C20.2655 65.3946 20.1328 65.7187 19.9581 65.9751C19.7171 66.3222 19.3795 66.6371 18.9452 66.9198C18.3681 67.2954 17.8423 67.4474 17.3677 67.3758C16.8961 67.3023 16.5328 67.0696 16.2778 66.6779C16.0386 66.3104 15.9498 65.938 16.0112 65.5608C16.0727 65.1836 16.3559 64.7485 16.8608 64.2555C17.4654 63.6631 17.8531 63.2724 18.024 63.0833C18.193 62.8912 18.3632 62.6744 18.5347 62.4331C18.3865 62.2053 18.2356 62.0765 18.0822 62.0467C17.9287 62.0169 17.7336 62.079 17.4967 62.2332C17.193 62.4309 16.9968 62.6277 16.9082 62.8238C16.8392 62.9768 16.8365 63.1818 16.9 63.4388ZM19.1426 63.367C18.9468 63.6241 18.7334 63.8776 18.5025 64.1273C18.1912 64.4727 18.017 64.7265 17.98 64.889C17.942 65.0564 17.9645 65.2039 18.0475 65.3314C18.1424 65.4772 18.2706 65.5646 18.4321 65.5935C18.5947 65.6174 18.7746 65.5651 18.972 65.4366C19.1786 65.3022 19.3373 65.1275 19.4482 64.9127C19.5621 64.6958 19.6091 64.4923 19.5891 64.3021C19.5701 64.1069 19.4855 63.8939 19.3353 63.6631L19.1426 63.367ZM25.826 56.0984C25.9376 55.4594 26.2804 54.9531 26.8544 54.5795C27.4769 54.1743 28.1291 54.0935 28.8109 54.3372C29.4907 54.5779 30.0817 55.0839 30.5837 55.8553C31.07 56.6024 31.2747 57.3188 31.1978 58.0044C31.1189 58.687 30.7651 59.2329 30.1365 59.6421C29.5412 60.0295 28.9465 60.1421 28.3523 59.9797L29.8585 62.2939L28.0044 63.5007L26.5041 61.1956C26.3624 61.8283 26.0122 62.3265 25.4534 62.6902C24.8339 63.0935 24.1842 63.1747 23.5044 62.9341C22.8226 62.6904 22.2297 62.1813 21.7256 61.4069C21.2394 60.6598 21.0357 59.9449 21.1145 59.2623C21.1934 58.5797 21.5457 58.0348 22.1713 57.6276C22.7635 57.2421 23.3677 57.1408 23.9838 57.3234L22.4538 54.9728L24.3079 53.766L25.826 56.0984ZM28.6746 58.6415C28.9175 58.4833 29.0381 58.26 29.0362 57.9716C29.0344 57.6831 28.9228 57.3688 28.7014 57.0286C28.1835 56.2329 27.6633 56.0051 27.141 56.3451C26.9132 56.4933 26.7736 56.7074 26.7223 56.9872C26.674 57.2651 26.7922 57.6227 27.0768 58.06C27.2884 58.385 27.5382 58.6094 27.8263 58.7332C28.1124 58.8539 28.3952 58.8233 28.6746 58.6415ZM25.1668 60.9246C25.3976 60.7744 25.5372 60.5603 25.5855 60.2825C25.6348 59.9996 25.5172 59.6395 25.2325 59.2021C25.021 58.8772 24.7722 58.6543 24.4861 58.5336C24.1999 58.4128 23.9157 58.4444 23.6332 58.6282C23.3933 58.7844 23.2727 59.0077 23.2715 59.2981C23.2714 59.5836 23.382 59.8964 23.6034 60.2365C24.1233 61.0352 24.6444 61.2646 25.1668 60.9246ZM37.1149 52.1491L33.3976 54.5686C33.6247 54.8445 33.8495 55.0138 34.0719 55.0766C34.3875 55.1695 34.6895 55.1221 34.978 54.9343C35.1603 54.8157 35.3037 54.6574 35.4084 54.4596C35.4711 54.3366 35.5127 54.1647 35.5332 53.9438L37.4697 52.9234C37.5065 53.5912 37.3968 54.1598 37.1403 54.6294C36.8819 55.0959 36.3837 55.5694 35.6457 56.0497C35.0049 56.4668 34.4424 56.7054 33.9583 56.7654C33.4722 56.8223 32.9802 56.734 32.4823 56.5004C31.9854 56.2617 31.564 55.8766 31.218 55.3452C30.7258 54.5889 30.569 53.8198 30.7474 53.0378C30.9289 52.2538 31.4464 51.5841 32.2998 51.0287C32.9922 50.578 33.6071 50.3269 34.1444 50.2756C34.6817 50.2242 35.1845 50.3292 35.6531 50.5907C36.1216 50.8521 36.5634 51.3017 36.9785 51.9395L37.1149 52.1491ZM34.6507 52.4883C34.381 52.1537 34.1168 51.9603 33.858 51.9082C33.6023 51.8541 33.3469 51.9101 33.0918 52.0761C32.7972 52.2679 32.638 52.538 32.614 52.8865C32.5965 53.1054 32.6665 53.369 32.8239 53.6773L34.6507 52.4883ZM36.8346 50.6323L39.5314 48.877L40.4654 50.312L37.7686 52.0673L36.8346 50.6323ZM43.5556 53.3658L39.2088 46.6874L40.9445 45.5577L41.41 46.2729C41.4542 45.8161 41.5419 45.4693 41.6732 45.2325C41.8506 44.9138 42.1033 44.6477 42.4313 44.4343C43.0782 44.0132 43.7389 43.9356 44.4134 44.2013C45.0909 44.4651 45.6669 44.9614 46.1413 45.6903C46.6651 46.4951 46.8725 47.2356 46.7636 47.9118C46.6526 48.585 46.3026 49.1134 45.7134 49.4968C45.4279 49.6827 45.1351 49.8041 44.835 49.8611C44.5379 49.9161 44.2344 49.9082 43.9246 49.8375L45.4279 52.1471L43.5556 53.3658ZM42.6508 47.9103C42.8999 48.2929 43.1652 48.5245 43.4467 48.605C43.7283 48.6855 43.992 48.6457 44.238 48.4856C44.4537 48.3452 44.577 48.1395 44.6082 47.8685C44.6373 47.5944 44.5135 47.2448 44.2368 46.8196C43.9818 46.4278 43.719 46.1903 43.4486 46.1069C43.1762 46.0205 42.9306 46.0484 42.712 46.1907C42.4751 46.3449 42.3379 46.566 42.3006 46.8541C42.2633 47.1421 42.38 47.4942 42.6508 47.9103ZM52.6674 42.0262L48.9501 44.4457C49.1772 44.7216 49.402 44.8909 49.6245 44.9537C49.94 45.0466 50.2421 44.9992 50.5306 44.8114C50.7128 44.6928 50.8563 44.5346 50.961 44.3367C51.0236 44.2138 51.0652 44.0419 51.0858 43.821L53.0222 42.8005C53.0591 43.4683 52.9493 44.037 52.6929 44.5065C52.4344 44.9731 51.9362 45.4465 51.1982 45.9269C50.5574 46.3439 49.995 46.5825 49.5109 46.6425C49.0248 46.6995 48.5328 46.6111 48.0348 46.3775C47.5379 46.1388 47.1165 45.7538 46.7706 45.2223C46.2784 44.4661 46.1215 43.697 46.3 42.9149C46.4815 42.131 46.9989 41.4612 47.8523 40.9058C48.5448 40.4551 49.1596 40.2041 49.6969 40.1527C50.2342 40.1013 50.7371 40.2063 51.2056 40.4678C51.6741 40.7293 52.1159 41.1789 52.531 41.8166L52.6674 42.0262ZM50.2032 42.3654C49.9335 42.0308 49.6693 41.8374 49.4106 41.7853C49.1549 41.7312 48.8995 41.7872 48.6444 41.9533C48.3498 42.145 48.1905 42.4151 48.1666 42.7636C48.1491 42.9825 48.2191 43.2461 48.3765 43.5544L50.2032 42.3654ZM57.1717 39.1917L59.0652 38.2446C59.2072 38.6754 59.2553 39.098 59.2095 39.5126C59.1618 39.9242 59.0132 40.3171 58.7639 40.6912C58.5175 41.0634 58.1286 41.4225 57.5972 41.7684C57.0839 42.1025 56.6251 42.3341 56.2206 42.4633C55.8172 42.5875 55.4233 42.6234 55.0389 42.5709C54.6526 42.5154 54.2957 42.3889 53.9682 42.1913C53.6407 41.9937 53.3218 41.6565 53.0114 41.1797C52.6873 40.6816 52.5025 40.2117 52.4571 39.77C52.4235 39.446 52.4522 39.1181 52.5433 38.7864C52.6324 38.4517 52.7602 38.1632 52.9267 37.9208C53.1913 37.5367 53.606 37.1609 54.1709 36.7932C54.9605 36.2792 55.6537 36.0291 56.2506 36.0427C56.8505 36.0543 57.4109 36.2776 57.9318 36.7125L56.3382 38.0804C56.1491 37.9095 55.9481 37.8198 55.7351 37.8115C55.5232 37.7981 55.2957 37.8705 55.0528 38.0286C54.746 38.2282 54.5692 38.5012 54.5221 38.8474C54.4762 39.1887 54.5985 39.5825 54.889 40.0289C55.148 40.4268 55.4388 40.6677 55.7615 40.7516C56.0842 40.8356 56.3914 40.7827 56.6829 40.5929C56.9259 40.4348 57.0888 40.2401 57.1718 40.0088C57.2578 39.7756 57.2578 39.5032 57.1717 39.1917ZM62.829 33.2461L61.4851 34.1208L63.7504 37.6012L61.8918 38.811L59.6265 35.3305L58.2826 36.2052L57.402 34.8522L61.9484 31.8931L62.829 33.2461ZM63.9615 34.0395C63.4812 33.3015 63.3349 32.532 63.5226 31.731C63.7084 30.927 64.2249 30.2492 65.0722 29.6977C66.041 29.0671 66.9558 28.8716 67.8165 29.1113C68.5089 29.3048 69.0706 29.7327 69.5015 30.3947C69.9858 31.1388 70.1356 31.9103 69.9509 32.7094C69.7673 33.5034 69.2396 34.184 68.368 34.7514C67.5905 35.2574 66.8334 35.4692 66.0966 35.3867C65.1891 35.2812 64.4775 34.8322 63.9615 34.0395ZM65.8172 32.8252C66.0979 33.2564 66.392 33.519 66.6995 33.6128C67.0101 33.7047 67.2975 33.6646 67.5617 33.4927C67.829 33.3187 67.9814 33.0746 68.0191 32.7605C68.0597 32.4443 67.9338 32.0615 67.6412 31.612C67.3684 31.1929 67.0793 30.9379 66.7737 30.8471C66.4662 30.7533 66.1849 30.7894 65.9298 30.9554C65.6595 31.1314 65.5045 31.3814 65.4647 31.7056C65.423 32.0268 65.5405 32.4 65.8172 32.8252ZM73.1847 34.0807L68.8379 27.4023L70.5736 26.2726L71.0391 26.9878C71.0833 26.531 71.1711 26.1842 71.3023 25.9474C71.4797 25.6288 71.7324 25.3627 72.0604 25.1492C72.7073 24.7282 73.368 24.6505 74.0425 24.9162C74.72 25.18 75.296 25.6763 75.7704 26.4052C76.2942 27.21 76.5016 27.9505 76.3927 28.6268C76.2818 29.3 75.9317 29.8283 75.3425 30.2118C75.057 30.3976 74.7642 30.519 74.4641 30.576C74.167 30.631 73.8635 30.6232 73.5537 30.5524L75.057 32.8621L73.1847 34.0807ZM72.2799 28.6252C72.529 29.0079 72.7943 29.2394 73.0758 29.3199C73.3574 29.4004 73.6211 29.3606 73.8671 29.2005C74.0828 29.0602 74.2061 28.8545 74.2373 28.5834C74.2664 28.3094 74.1426 27.9597 73.8659 27.5346C73.6109 27.1428 73.3482 26.9052 73.0777 26.8218C72.8053 26.7354 72.5597 26.7633 72.3411 26.9057C72.1042 27.0599 71.9671 27.281 71.9297 27.569C71.8924 27.8571 72.0091 28.2091 72.2799 28.6252ZM77.7617 23.825L75.8681 24.7916C75.7332 24.4383 75.6708 24.1331 75.6806 23.8759C75.6916 23.6137 75.773 23.3402 75.9249 23.0554C76.0337 22.8506 76.2201 22.6255 76.4841 22.3801C76.7481 22.1348 77.0532 21.8994 77.3995 21.6741C77.9552 21.3124 78.4224 21.0537 78.8011 20.898C79.1777 20.7393 79.5426 20.6856 79.8959 20.7367C80.1427 20.7706 80.3938 20.8839 80.6489 21.0767C80.9021 21.2664 81.1029 21.4752 81.2511 21.7029L82.6417 23.8395C82.79 24.0673 82.9203 24.2376 83.0326 24.3504C83.146 24.4581 83.3165 24.5806 83.5442 24.7178L81.804 25.8505C81.6531 25.7714 81.5462 25.7069 81.4835 25.657C81.4187 25.604 81.3303 25.5146 81.2181 25.3887C81.1273 25.7807 80.9946 26.1049 80.8199 26.3613C80.5789 26.7084 80.2412 27.0233 79.8069 27.306C79.2299 27.6816 78.7041 27.8336 78.2295 27.762C77.7579 27.6885 77.3946 27.4558 77.1396 27.064C76.9004 26.6966 76.8115 26.3242 76.873 25.947C76.9344 25.5697 77.2176 25.1346 77.7226 24.6417C78.3271 24.0493 78.7149 23.6586 78.8858 23.4695C79.0548 23.2773 79.225 23.0606 79.3965 22.8193C79.2483 22.5915 79.0974 22.4627 78.944 22.4329C78.7905 22.403 78.5953 22.4652 78.3585 22.6194C78.0548 22.8171 77.8586 23.0139 77.77 23.2099C77.701 23.3629 77.6982 23.568 77.7617 23.825ZM80.0044 23.7532C79.8085 24.0103 79.5952 24.2638 79.3643 24.5135C79.0529 24.8588 78.8788 25.1127 78.8418 25.2751C78.8038 25.4426 78.8263 25.5901 78.9093 25.7176C79.0042 25.8634 79.1324 25.9507 79.2939 25.9796C79.4564 26.0035 79.6364 25.9513 79.8338 25.8228C80.0403 25.6883 80.199 25.5137 80.31 25.2988C80.4239 25.082 80.4709 24.8785 80.4509 24.6883C80.4319 24.4931 80.3473 24.2801 80.1971 24.0493L80.0044 23.7532ZM89.89 20.5874L88.0314 21.7972L86.8424 19.9704L85.1568 21.0675L86.3458 22.8943L84.4872 24.104L81.3412 19.2706L83.1999 18.0608L84.2762 19.7145L85.9617 18.6174L84.8854 16.9638L86.7441 15.754L89.89 20.5874Z" fill="#00100F"/>
</g>
<defs>
<clipPath id="clip0_85_839">
<rect width="126" height="126" fill="white"/>
</clipPath>
</defs>
</svg>
