<svg width="160" height="89" viewBox="0 0 160 89" fill="none" xmlns="http://www.w3.org/2000/svg">
<g clip-path="url(#clip0_85_658)">
<path d="M79.9996 88.7128C79.5553 88.7128 79.1116 88.6224 78.696 88.4407C51.6681 76.6235 10.7649 58.7796 8.85612 58.0602C5.9079 57.0162 0.287109 52.783 0.287109 44.2936C0.287109 35.3454 8.33711 31.78 8.67952 31.6321L78.6795 0.567243C79.1001 0.380569 79.5502 0.287231 80.0003 0.287231C80.4504 0.287231 80.9005 0.380569 81.3212 0.567243L151.355 31.6471C151.664 31.78 159.714 35.3447 159.714 44.2936C159.714 52.783 154.093 57.0162 151.121 58.0688C149.236 58.7803 108.333 76.6228 81.3047 88.4407C80.8883 88.6224 80.444 88.7128 79.9996 88.7128Z" fill="white"/>
<path d="M79.9996 88.7128C79.5553 88.7128 79.1116 88.6224 78.696 88.4407C51.6681 76.6235 10.7649 58.7796 8.85612 58.0602C5.90789 57.0162 0.287109 52.783 0.287109 44.2936C0.287109 35.3454 8.33711 31.78 8.67952 31.6321L78.6795 0.567243C79.1001 0.380569 79.5502 0.287231 80.0003 0.287231C80.4504 0.287231 80.9005 0.380569 81.3212 0.567243L151.355 31.6471C151.664 31.78 159.714 35.3447 159.714 44.2936C159.714 52.783 154.093 57.0162 151.121 58.0688C149.236 58.7803 108.333 76.6228 81.3047 88.4407C80.8883 88.6224 80.444 88.7128 79.9996 88.7128Z" stroke="white" stroke-width="0.8004" stroke-miterlimit="10"/>
<path d="M150.033 34.6238L79.9996 3.54395L9.96595 34.6238C9.96595 34.6238 3.5426 37.3866 3.5426 44.2936C3.5426 51.1998 8.01411 54.308 9.96595 54.9986C11.9185 55.6886 79.9996 85.4568 79.9996 85.4568C79.9996 85.4568 148.081 55.6893 150.033 54.9986C151.985 54.308 156.457 51.1991 156.457 44.2936C156.457 37.3866 150.033 34.6238 150.033 34.6238Z" fill="white"/>
<path d="M134.234 36.8511L80.0003 12.7837L25.7666 36.8511C25.7666 36.8511 20.7911 38.9921 20.7911 44.3396C20.7911 49.6885 24.2533 52.0952 25.7666 52.6301C27.2769 53.1657 80.0003 76.2179 80.0003 76.2179C80.0003 76.2179 132.721 53.1657 134.234 52.6301C135.746 52.0952 139.209 49.6885 139.209 44.3396C139.209 38.9921 134.234 36.8511 134.234 36.8511Z" fill="white"/>
<path d="M79.9989 3.12255C80.5773 3.12255 81.0462 2.60759 81.0462 1.97235C81.0462 1.33711 80.5773 0.822144 79.9989 0.822144C79.4205 0.822144 78.9515 1.33711 78.9515 1.97235C78.9515 2.60759 79.4205 3.12255 79.9989 3.12255Z" fill="#00100F"/>
<path d="M2.90001 40.79C3.47844 40.79 3.94736 40.2756 3.94736 39.6412C3.94736 39.0068 3.47844 38.4924 2.90001 38.4924C2.32157 38.4924 1.85266 39.0068 1.85266 39.6412C1.85266 40.2756 2.32157 40.79 2.90001 40.79Z" fill="#00100F"/>
<path d="M1.90437 45.6499C2.4836 45.6499 2.95316 45.1349 2.95316 44.4997C2.95316 43.8645 2.4836 43.3495 1.90437 43.3495C1.32515 43.3495 0.855591 43.8645 0.855591 44.4997C0.855591 45.1349 1.32515 45.6499 1.90437 45.6499Z" fill="#00100F"/>
<path d="M2.95248 50.7927C3.53131 50.7927 4.00055 50.2781 4.00055 49.6433C4.00055 49.0084 3.53131 48.4938 2.95248 48.4938C2.37365 48.4938 1.90442 49.0084 1.90442 49.6433C1.90442 50.2781 2.37365 50.7927 2.95248 50.7927Z" fill="#00100F"/>
<path d="M69.3803 7.64294C69.9592 7.64294 70.4284 7.12797 70.4284 6.49273C70.4284 5.85749 69.9592 5.34253 69.3803 5.34253C68.8015 5.34253 68.3323 5.85749 68.3323 6.49273C68.3323 7.12797 68.8015 7.64294 69.3803 7.64294Z" fill="#00100F"/>
<path d="M74.7664 5.19109C75.3453 5.19109 75.8145 4.67677 75.8145 4.04232C75.8145 3.40788 75.3453 2.89355 74.7664 2.89355C74.1876 2.89355 73.7184 3.40788 73.7184 4.04232C73.7184 4.67677 74.1876 5.19109 74.7664 5.19109Z" fill="#00100F"/>
<path d="M64.0123 10.0145C64.5915 10.0145 65.0611 9.50013 65.0611 8.86569C65.0611 8.23124 64.5915 7.71692 64.0123 7.71692C63.4331 7.71692 62.9635 8.23124 62.9635 8.86569C62.9635 9.50013 63.4331 10.0145 64.0123 10.0145Z" fill="#00100F"/>
<path d="M53.3923 14.7372C53.9708 14.7372 54.4397 14.2229 54.4397 13.5885C54.4397 12.954 53.9708 12.4397 53.3923 12.4397C52.8139 12.4397 52.345 12.954 52.345 13.5885C52.345 14.2229 52.8139 14.7372 53.3923 14.7372Z" fill="#00100F"/>
<path d="M58.7274 12.3371C59.3062 12.3371 59.7754 11.8228 59.7754 11.1883C59.7754 10.5539 59.3062 10.0396 58.7274 10.0396C58.1486 10.0396 57.6793 10.5539 57.6793 11.1883C57.6793 11.8228 58.1486 12.3371 58.7274 12.3371Z" fill="#00100F"/>
<path d="M48.3443 16.8338C48.9232 16.8338 49.3924 16.3191 49.3924 15.6843C49.3924 15.0494 48.9232 14.5348 48.3443 14.5348C47.7655 14.5348 47.2963 15.0494 47.2963 15.6843C47.2963 16.3191 47.7655 16.8338 48.3443 16.8338Z" fill="#00100F"/>
<path d="M37.7267 21.6573C38.3051 21.6573 38.774 21.143 38.774 20.5085C38.774 19.8741 38.3051 19.3597 37.7267 19.3597C37.1482 19.3597 36.6793 19.8741 36.6793 20.5085C36.6793 21.143 37.1482 21.6573 37.7267 21.6573Z" fill="#00100F"/>
<path d="M43.1119 19.2577C43.6904 19.2577 44.1593 18.7431 44.1593 18.1082C44.1593 17.4734 43.6904 16.9587 43.1119 16.9587C42.5335 16.9587 42.0646 17.4734 42.0646 18.1082C42.0646 18.7431 42.5335 19.2577 43.1119 19.2577Z" fill="#00100F"/>
<path d="M32.3061 24.1312C32.8846 24.1312 33.3535 23.6166 33.3535 22.9818C33.3535 22.3469 32.8846 21.8323 32.3061 21.8323C31.7277 21.8323 31.2588 22.3469 31.2588 22.9818C31.2588 23.6166 31.7277 24.1312 32.3061 24.1312Z" fill="#00100F"/>
<path d="M21.7373 28.7522C22.3161 28.7522 22.7853 28.2376 22.7853 27.6027C22.7853 26.9679 22.3161 26.4532 21.7373 26.4532C21.1584 26.4532 20.6892 26.9679 20.6892 27.6027C20.6892 28.2376 21.1584 28.7522 21.7373 28.7522Z" fill="#00100F"/>
<path d="M27.073 26.3528C27.6514 26.3528 28.1203 25.8382 28.1203 25.2033C28.1203 24.5685 27.6514 24.0538 27.073 24.0538C26.4945 24.0538 26.0256 24.5685 26.0256 25.2033C26.0256 25.8382 26.4945 26.3528 27.073 26.3528Z" fill="#00100F"/>
<path d="M16.7072 31.0513C17.2861 31.0513 17.7553 30.5366 17.7553 29.9018C17.7553 29.267 17.2861 28.7523 16.7072 28.7523C16.1284 28.7523 15.6592 29.267 15.6592 29.9018C15.6592 30.5366 16.1284 31.0513 16.7072 31.0513Z" fill="#00100F"/>
<path d="M6.18857 36.319C6.7674 36.319 7.23663 35.8047 7.23663 35.1703C7.23663 34.5358 6.7674 34.0215 6.18857 34.0215C5.60974 34.0215 5.1405 34.5358 5.1405 35.1703C5.1405 35.8047 5.60974 36.319 6.18857 36.319Z" fill="#00100F"/>
<path d="M11.4734 33.2726C12.0522 33.2726 12.5214 32.758 12.5214 32.1231C12.5214 31.4883 12.0522 30.9736 11.4734 30.9736C10.8945 30.9736 10.4253 31.4883 10.4253 32.1231C10.4253 32.758 10.8945 33.2726 11.4734 33.2726Z" fill="#00100F"/>
<path d="M80.9407 87.0128C80.9378 86.3781 80.4684 85.864 79.8905 85.8655C79.3105 85.8669 78.8417 86.3831 78.8431 87.0171C78.846 87.6532 79.3169 88.1659 79.8955 88.1644C80.4741 88.163 80.9414 87.6475 80.9407 87.0128Z" fill="#00100F"/>
<path d="M69.2605 83.6734C69.8393 83.6734 70.3085 83.1587 70.3085 82.5239C70.3085 81.889 69.8393 81.3744 69.2605 81.3744C68.6816 81.3744 68.2124 81.889 68.2124 82.5239C68.2124 83.1587 68.6816 83.6734 69.2605 83.6734Z" fill="#00100F"/>
<path d="M75.7025 84.9564C75.6996 84.3217 75.2294 83.8084 74.6501 83.8098C74.0715 83.8113 73.6035 84.3268 73.6063 84.9622C73.6063 85.5969 74.0772 86.1102 74.6566 86.1081C75.2351 86.1073 75.7032 85.5911 75.7025 84.9564Z" fill="#00100F"/>
<path d="M63.8867 81.3147C64.4655 81.3147 64.9348 80.8001 64.9348 80.1652C64.9348 79.5304 64.4655 79.0157 63.8867 79.0157C63.3079 79.0157 62.8386 79.5304 62.8386 80.1652C62.8386 80.8001 63.3079 81.3147 63.8867 81.3147Z" fill="#00100F"/>
<path d="M53.2545 76.6206C53.8333 76.6206 54.3026 76.106 54.3026 75.4711C54.3026 74.8363 53.8333 74.3217 53.2545 74.3217C52.6757 74.3217 52.2064 74.8363 52.2064 75.4711C52.2064 76.106 52.6757 76.6206 53.2545 76.6206Z" fill="#00100F"/>
<path d="M58.5946 79.0065C59.173 79.0065 59.6419 78.4915 59.6419 77.8563C59.6419 77.221 59.173 76.7061 58.5946 76.7061C58.0162 76.7061 57.5472 77.221 57.5472 77.8563C57.5472 78.4915 58.0162 79.0065 58.5946 79.0065Z" fill="#00100F"/>
<path d="M49.2482 73.3855C49.2475 72.7501 48.7759 72.2367 48.198 72.2382C47.6187 72.2396 47.1507 72.7558 47.1521 73.3905C47.155 74.0252 47.6245 74.5393 48.2023 74.5371C48.7845 74.5371 49.2504 74.0209 49.2482 73.3855Z" fill="#00100F"/>
<path d="M37.5702 69.7416C38.149 69.7416 38.6182 69.2273 38.6182 68.5929C38.6182 67.9584 38.149 67.4441 37.5702 67.4441C36.9913 67.4441 36.5221 67.9584 36.5221 68.5929C36.5221 69.2273 36.9913 69.7416 37.5702 69.7416Z" fill="#00100F"/>
<path d="M42.9619 72.1269C43.5403 72.1269 44.0092 71.6126 44.0092 70.9781C44.0092 70.3437 43.5403 69.8293 42.9619 69.8293C42.3835 69.8293 41.9146 70.3437 41.9146 70.9781C41.9146 71.6126 42.3835 72.1269 42.9619 72.1269Z" fill="#00100F"/>
<path d="M33.189 66.1309C33.189 65.4969 32.7196 64.9821 32.1388 64.985C31.5609 64.9864 31.0936 65.5027 31.0936 66.1366C31.0972 66.7713 31.5667 67.2847 32.1446 67.2832C32.7246 67.2818 33.1919 66.7656 33.189 66.1309Z" fill="#00100F"/>
<path d="M21.5621 62.6905C22.1409 62.6905 22.6102 62.1758 22.6102 61.541C22.6102 60.9061 22.1409 60.3915 21.5621 60.3915C20.9833 60.3915 20.514 60.9061 20.514 61.541C20.514 62.1758 20.9833 62.6905 21.5621 62.6905Z" fill="#00100F"/>
<path d="M26.9037 65.0749C27.4825 65.0749 27.9517 64.5606 27.9517 63.9261C27.9517 63.2917 27.4825 62.7773 26.9037 62.7773C26.3248 62.7773 25.8556 63.2917 25.8556 63.9261C25.8556 64.5606 26.3248 65.0749 26.9037 65.0749Z" fill="#00100F"/>
<path d="M16.5256 60.4043C17.1044 60.4043 17.5737 59.89 17.5737 59.2556C17.5737 58.6211 17.1044 58.1068 16.5256 58.1068C15.9468 58.1068 15.4775 58.6211 15.4775 59.2556C15.4775 59.89 15.9468 60.4043 16.5256 60.4043Z" fill="#00100F"/>
<path d="M5.99397 55.166C6.5732 55.166 7.04276 54.651 7.04276 54.0158C7.04276 53.3806 6.5732 52.8656 5.99397 52.8656C5.41475 52.8656 4.94519 53.3806 4.94519 54.0158C4.94519 54.651 5.41475 55.166 5.99397 55.166Z" fill="#00100F"/>
<path d="M11.286 58.1966C11.8652 58.1966 12.3347 57.6823 12.3347 57.0478C12.3347 56.4134 11.8652 55.899 11.286 55.899C10.7067 55.899 10.2372 56.4134 10.2372 57.0478C10.2372 57.6823 10.7067 58.1966 11.286 58.1966Z" fill="#00100F"/>
<path d="M157.1 40.79C157.678 40.79 158.147 40.2756 158.147 39.6412C158.147 39.0068 157.678 38.4924 157.1 38.4924C156.521 38.4924 156.052 39.0068 156.052 39.6412C156.052 40.2756 156.521 40.79 157.1 40.79Z" fill="#00100F"/>
<path d="M158.095 45.6499C158.674 45.6499 159.143 45.1349 159.143 44.4997C159.143 43.8645 158.674 43.3495 158.095 43.3495C157.517 43.3495 157.047 43.8645 157.047 44.4997C157.047 45.1349 157.517 45.6499 158.095 45.6499Z" fill="#00100F"/>
<path d="M157.047 50.7927C157.626 50.7927 158.095 50.2781 158.095 49.6433C158.095 49.0084 157.626 48.4938 157.047 48.4938C156.469 48.4938 156 49.0084 156 49.6433C156 50.2781 156.469 50.7927 157.047 50.7927Z" fill="#00100F"/>
<path d="M90.6187 7.64294C91.198 7.64294 91.6675 7.12797 91.6675 6.49273C91.6675 5.85749 91.198 5.34253 90.6187 5.34253C90.0395 5.34253 89.5699 5.85749 89.5699 6.49273C89.5699 7.12797 90.0395 7.64294 90.6187 7.64294Z" fill="#00100F"/>
<path d="M84.1853 4.04229C84.1853 4.67699 84.6519 5.19106 85.2341 5.19106C85.8127 5.19106 86.2814 4.67699 86.2814 4.04229C86.2814 3.40688 85.8127 2.89209 85.2341 2.89209C84.6526 2.89281 84.1853 3.4076 84.1853 4.04229Z" fill="#00100F"/>
<path d="M95.9875 10.0145C96.5663 10.0145 97.0356 9.50013 97.0356 8.86569C97.0356 8.23124 96.5663 7.71692 95.9875 7.71692C95.4087 7.71692 94.9395 8.23124 94.9395 8.86569C94.9395 9.50013 95.4087 10.0145 95.9875 10.0145Z" fill="#00100F"/>
<path d="M106.606 14.7372C107.184 14.7372 107.653 14.2229 107.653 13.5885C107.653 12.954 107.184 12.4397 106.606 12.4397C106.028 12.4397 105.559 12.954 105.559 13.5885C105.559 14.2229 106.028 14.7372 106.606 14.7372Z" fill="#00100F"/>
<path d="M101.272 12.3371C101.851 12.3371 102.32 11.8228 102.32 11.1883C102.32 10.5539 101.851 10.0396 101.272 10.0396C100.694 10.0396 100.224 10.5539 100.224 11.1883C100.224 11.8228 100.694 12.3371 101.272 12.3371Z" fill="#00100F"/>
<path d="M111.655 16.8338C112.234 16.8338 112.703 16.3191 112.703 15.6843C112.703 15.0494 112.234 14.5348 111.655 14.5348C111.076 14.5348 110.607 15.0494 110.607 15.6843C110.607 16.3191 111.076 16.8338 111.655 16.8338Z" fill="#00100F"/>
<path d="M122.272 21.6573C122.851 21.6573 123.32 21.143 123.32 20.5085C123.32 19.8741 122.851 19.3597 122.272 19.3597C121.694 19.3597 121.224 19.8741 121.224 20.5085C121.224 21.143 121.694 21.6573 122.272 21.6573Z" fill="#00100F"/>
<path d="M116.888 19.2577C117.466 19.2577 117.935 18.7431 117.935 18.1082C117.935 17.4734 117.466 16.9587 116.888 16.9587C116.309 16.9587 115.841 17.4734 115.841 18.1082C115.841 18.7431 116.309 19.2577 116.888 19.2577Z" fill="#00100F"/>
<path d="M127.693 24.1312C128.272 24.1312 128.741 23.6166 128.741 22.9818C128.741 22.3469 128.272 21.8323 127.693 21.8323C127.114 21.8323 126.645 22.3469 126.645 22.9818C126.645 23.6166 127.114 24.1312 127.693 24.1312Z" fill="#00100F"/>
<path d="M138.262 28.7522C138.84 28.7522 139.309 28.2376 139.309 27.6027C139.309 26.9679 138.84 26.4532 138.262 26.4532C137.683 26.4532 137.214 26.9679 137.214 27.6027C137.214 28.2376 137.683 28.7522 138.262 28.7522Z" fill="#00100F"/>
<path d="M132.926 26.3528C133.505 26.3528 133.974 25.8382 133.974 25.2033C133.974 24.5685 133.505 24.0538 132.926 24.0538C132.347 24.0538 131.878 24.5685 131.878 25.2033C131.878 25.8382 132.347 26.3528 132.926 26.3528Z" fill="#00100F"/>
<path d="M143.293 31.0513C143.871 31.0513 144.34 30.5366 144.34 29.9018C144.34 29.267 143.871 28.7523 143.293 28.7523C142.714 28.7523 142.245 29.267 142.245 29.9018C142.245 30.5366 142.714 31.0513 143.293 31.0513Z" fill="#00100F"/>
<path d="M153.811 36.319C154.389 36.319 154.858 35.8047 154.858 35.1703C154.858 34.5358 154.389 34.0215 153.811 34.0215C153.232 34.0215 152.763 34.5358 152.763 35.1703C152.763 35.8047 153.232 36.319 153.811 36.319Z" fill="#00100F"/>
<path d="M148.526 33.2726C149.104 33.2726 149.573 32.758 149.573 32.1231C149.573 31.4883 149.104 30.9736 148.526 30.9736C147.947 30.9736 147.478 31.4883 147.478 32.1231C147.478 32.758 147.947 33.2726 148.526 33.2726Z" fill="#00100F"/>
<path d="M90.7386 83.6734C91.3174 83.6734 91.7867 83.1587 91.7867 82.5239C91.7867 81.889 91.3174 81.3744 90.7386 81.3744C90.1598 81.3744 89.6906 81.889 89.6906 82.5239C89.6906 83.1587 90.1598 83.6734 90.7386 83.6734Z" fill="#00100F"/>
<path d="M85.3461 86.1088C85.9254 86.1088 86.3949 85.5941 86.3949 84.9593C86.3949 84.3245 85.9254 83.8098 85.3461 83.8098C84.7669 83.8098 84.2974 84.3245 84.2974 84.9593C84.2974 85.5941 84.7669 86.1088 85.3461 86.1088Z" fill="#00100F"/>
<path d="M96.1131 81.3147C96.6916 81.3147 97.1605 80.8001 97.1605 80.1652C97.1605 79.5304 96.6916 79.0157 96.1131 79.0157C95.5347 79.0157 95.0658 79.5304 95.0658 80.1652C95.0658 80.8001 95.5347 81.3147 96.1131 81.3147Z" fill="#00100F"/>
<path d="M106.745 76.6206C107.323 76.6206 107.793 76.106 107.793 75.4711C107.793 74.8363 107.323 74.3217 106.745 74.3217C106.166 74.3217 105.697 74.8363 105.697 75.4711C105.697 76.106 106.166 76.6206 106.745 76.6206Z" fill="#00100F"/>
<path d="M101.405 79.0065C101.983 79.0065 102.453 78.4915 102.453 77.8563C102.453 77.221 101.983 76.7061 101.405 76.7061C100.826 76.7061 100.356 77.221 100.356 77.8563C100.356 78.4915 100.826 79.0065 101.405 79.0065Z" fill="#00100F"/>
<path d="M110.75 73.3855C110.751 72.7501 111.223 72.2367 111.801 72.2382C112.381 72.2396 112.85 72.7558 112.847 73.3905C112.844 74.0252 112.375 74.5393 111.796 74.5371C111.215 74.5371 110.747 74.0209 110.75 73.3855Z" fill="#00100F"/>
<path d="M122.43 69.7416C123.008 69.7416 123.478 69.2273 123.478 68.5929C123.478 67.9584 123.008 67.4441 122.43 67.4441C121.851 67.4441 121.382 67.9584 121.382 68.5929C121.382 69.2273 121.851 69.7416 122.43 69.7416Z" fill="#00100F"/>
<path d="M117.038 72.1269C117.616 72.1269 118.085 71.6126 118.085 70.9781C118.085 70.3437 117.616 69.8293 117.038 69.8293C116.459 69.8293 115.99 70.3437 115.99 70.9781C115.99 71.6126 116.459 72.1269 117.038 72.1269Z" fill="#00100F"/>
<path d="M127.857 67.2825C128.436 67.2825 128.905 66.7682 128.905 66.1338C128.905 65.4993 128.436 64.985 127.857 64.985C127.277 64.985 126.808 65.4993 126.808 66.1338C126.808 66.7682 127.277 67.2825 127.857 67.2825Z" fill="#00100F"/>
<path d="M138.437 62.6905C139.016 62.6905 139.485 62.1758 139.485 61.541C139.485 60.9061 139.016 60.3915 138.437 60.3915C137.858 60.3915 137.389 60.9061 137.389 61.541C137.389 62.1758 137.858 62.6905 138.437 62.6905Z" fill="#00100F"/>
<path d="M133.096 65.0749C133.675 65.0749 134.144 64.5606 134.144 63.9261C134.144 63.2917 133.675 62.7773 133.096 62.7773C132.518 62.7773 132.049 63.2917 132.049 63.9261C132.049 64.5606 132.518 65.0749 133.096 65.0749Z" fill="#00100F"/>
<path d="M143.474 60.4043C144.053 60.4043 144.522 59.89 144.522 59.2556C144.522 58.6211 144.053 58.1068 143.474 58.1068C142.895 58.1068 142.426 58.6211 142.426 59.2556C142.426 59.89 142.895 60.4043 143.474 60.4043Z" fill="#00100F"/>
<path d="M154.006 55.166C154.585 55.166 155.055 54.651 155.055 54.0158C155.055 53.3806 154.585 52.8656 154.006 52.8656C153.427 52.8656 152.957 53.3806 152.957 54.0158C152.957 54.651 153.427 55.166 154.006 55.166Z" fill="#00100F"/>
<path d="M148.715 58.1966C149.293 58.1966 149.763 57.6823 149.763 57.0478C149.763 56.4134 149.293 55.899 148.715 55.899C148.136 55.899 147.667 56.4134 147.667 57.0478C147.667 57.6823 148.136 58.1966 148.715 58.1966Z" fill="#00100F"/>
<path d="M51.2511 69.8236C51.0006 69.8236 50.7694 69.6886 50.6452 69.4711L48.6963 66.0406V69.1264C48.6963 69.5113 48.384 69.8229 47.9992 69.8229H45.3446C44.9598 69.8229 44.6476 69.5113 44.6476 69.1264V58.9175C44.6476 58.5327 44.9598 58.2211 45.3446 58.2211H47.9992C48.384 58.2211 48.6963 58.5327 48.6963 58.9175V62.0522C49.0602 61.9991 49.3287 61.8827 49.511 61.6997C49.9769 61.2315 49.9748 60.2364 49.9712 59.1824L49.9705 58.9168C49.9705 58.5319 50.2827 58.2203 50.6675 58.2203H53.3501C53.7349 58.2203 54.0471 58.5319 54.0471 58.9168V59.0877C54.0486 60.9953 54.05 62.9619 52.3128 64.4072L54.7471 68.3517C54.8145 68.4616 54.8511 68.5887 54.8511 68.7179V69.1264C54.8511 69.5113 54.5389 69.8229 54.1541 69.8229H51.2511V69.8236Z" fill="white"/>
<path d="M51.2511 69.8236C51.0006 69.8236 50.7694 69.6886 50.6452 69.4711L48.6963 66.0406V69.1264C48.6963 69.5113 48.384 69.8229 47.9992 69.8229H45.3446C44.9598 69.8229 44.6476 69.5113 44.6476 69.1264V58.9175C44.6476 58.5327 44.9598 58.2211 45.3446 58.2211H47.9992C48.384 58.2211 48.6963 58.5327 48.6963 58.9175V62.0522C49.0602 61.9991 49.3287 61.8827 49.511 61.6997C49.9769 61.2315 49.9748 60.2364 49.9712 59.1824L49.9705 58.9168C49.9705 58.5319 50.2827 58.2203 50.6675 58.2203H53.3501C53.7349 58.2203 54.0471 58.5319 54.0471 58.9168V59.0877C54.0486 60.9953 54.05 62.9619 52.3128 64.4072L54.7471 68.3517C54.8145 68.4616 54.8511 68.5887 54.8511 68.7179V69.1264C54.8511 69.5113 54.5389 69.8229 54.1541 69.8229H51.2511V69.8236Z" stroke="white" stroke-width="0.5545" stroke-miterlimit="10"/>
<path d="M62.596 69.8237C62.3254 69.8237 62.0792 69.6671 61.965 69.4216L61.5537 68.5399H58.4167L58.0075 69.4209C57.8934 69.6664 57.6472 69.8237 57.3758 69.8237H54.8231C54.4384 69.8237 54.1261 69.512 54.1261 69.1272V68.7474C54.1261 68.6469 54.1483 68.5471 54.1907 68.4559L58.7821 58.4939C58.8955 58.2469 59.1425 58.089 59.4145 58.089H60.5387C60.81 58.089 61.057 58.2469 61.1711 58.4932L65.7797 68.4552C65.8221 68.5464 65.8443 68.6469 65.8443 68.7474V69.1272C65.8443 69.512 65.5321 69.8237 65.1473 69.8237H62.596Z" fill="white"/>
<path d="M62.596 69.8237C62.3254 69.8237 62.0792 69.6671 61.965 69.4216L61.5537 68.5399H58.4167L58.0075 69.4209C57.8934 69.6664 57.6472 69.8237 57.3758 69.8237H54.8231C54.4384 69.8237 54.1261 69.512 54.1261 69.1272V68.7474C54.1261 68.6469 54.1483 68.5471 54.1907 68.4559L58.7821 58.4939C58.8955 58.2469 59.1425 58.089 59.4145 58.089H60.5387C60.81 58.089 61.057 58.2469 61.1711 58.4932L65.7797 68.4552C65.8221 68.5464 65.8443 68.6469 65.8443 68.7474V69.1272C65.8443 69.512 65.5321 69.8237 65.1473 69.8237H62.596V69.8237Z" stroke="white" stroke-width="0.5545" stroke-miterlimit="10"/>
<path d="M66.4896 69.8236C66.1049 69.8236 65.7926 69.512 65.7926 69.1272V58.9175C65.7926 58.5327 66.1049 58.2211 66.4896 58.2211H70.9812C73.8483 58.229 75.3444 60.4949 75.3415 62.7293C75.3379 64.9572 73.839 67.2123 70.9812 67.2123H69.7968V69.1272C69.7968 69.512 69.4845 69.8236 69.0998 69.8236H66.4896ZM70.9654 63.4717C71.2418 63.4717 71.3725 63.005 71.3739 62.6898C71.3739 62.6826 71.3725 61.951 70.9583 61.9467C70.7501 61.9416 70.5469 61.9402 70.3431 61.9402L69.7961 61.9431V63.4717H70.9654Z" fill="white"/>
<path d="M66.4896 69.8236C66.1049 69.8236 65.7926 69.512 65.7926 69.1272V58.9175C65.7926 58.5327 66.1049 58.2211 66.4896 58.2211H70.9812C73.8483 58.229 75.3444 60.4949 75.3415 62.7293C75.3379 64.9572 73.839 67.2123 70.9812 67.2123H69.7968V69.1272C69.7968 69.512 69.4845 69.8236 69.0998 69.8236H66.4896ZM70.9654 63.4717C71.2418 63.4717 71.3725 63.005 71.3739 62.6898C71.3739 62.6826 71.3725 61.951 70.9583 61.9467C70.7501 61.9416 70.5469 61.9402 70.3431 61.9402L69.7961 61.9431V63.4717H70.9654V63.4717Z" stroke="white" stroke-width="0.5545" stroke-miterlimit="10"/>
<path d="M82.4856 69.8237C82.215 69.8237 81.968 69.6664 81.8539 69.4209L81.444 68.5399H78.3084L77.8971 69.4216C77.7829 69.6671 77.5367 69.8237 77.2661 69.8237H74.7141C74.3294 69.8237 74.0171 69.512 74.0171 69.1272V68.7474C74.0171 68.6469 74.0393 68.5471 74.0817 68.4559L78.6752 58.4939C78.7887 58.2469 79.0356 58.089 79.3077 58.089H80.4297C80.701 58.089 80.9479 58.2469 81.0621 58.4932L85.6707 68.4552C85.7131 68.5464 85.7353 68.6469 85.7353 68.7474V69.1272C85.7353 69.512 85.423 69.8237 85.0383 69.8237H82.4856Z" fill="white"/>
<path d="M82.4856 69.8237C82.215 69.8237 81.968 69.6664 81.8539 69.4209L81.444 68.5399H78.3084L77.8971 69.4216C77.7829 69.6671 77.5367 69.8237 77.2661 69.8237H74.7141C74.3294 69.8237 74.0171 69.512 74.0171 69.1272V68.7474C74.0171 68.6469 74.0393 68.5471 74.0817 68.4559L78.6752 58.4939C78.7887 58.2469 79.0356 58.089 79.3077 58.089H80.4297C80.701 58.089 80.9479 58.2469 81.0621 58.4932L85.6707 68.4552C85.7131 68.5464 85.7353 68.6469 85.7353 68.7474V69.1272C85.7353 69.512 85.423 69.8237 85.0383 69.8237H82.4856V69.8237Z" stroke="white" stroke-width="0.5545" stroke-miterlimit="10"/>
<path d="M90.9879 70.039C88.0404 70.039 85.0555 67.977 85.0555 64.0367C85.0555 60.1029 88.0397 58.0452 90.9879 58.0452C93.9361 58.0452 96.9202 60.1029 96.9202 64.0367C96.9202 67.977 93.9354 70.039 90.9879 70.039ZM90.9958 61.9768C90.0683 61.9768 89.1322 62.6137 89.1322 64.0367C89.1322 65.4748 90.0683 66.1188 90.9958 66.1188C91.9225 66.1188 92.8586 65.4748 92.8586 64.0367C92.8579 62.6137 91.9225 61.9768 90.9958 61.9768Z" fill="white"/>
<path d="M90.9879 70.039C88.0404 70.039 85.0555 67.977 85.0555 64.0367C85.0555 60.1029 88.0397 58.0452 90.9879 58.0452C93.9361 58.0452 96.9202 60.1029 96.9202 64.0367C96.9202 67.977 93.9354 70.039 90.9879 70.039ZM90.9958 61.9768C90.0683 61.9768 89.1322 62.6137 89.1322 64.0367C89.1322 65.4748 90.0683 66.1188 90.9958 66.1188C91.9225 66.1188 92.8586 65.4748 92.8586 64.0367C92.8579 62.6137 91.9225 61.9768 90.9958 61.9768Z" stroke="white" stroke-width="0.5545" stroke-miterlimit="10"/>
<path d="M104.112 69.8236C103.862 69.8236 103.631 69.6886 103.506 69.4711L101.557 66.0406V69.1264C101.557 69.5113 101.245 69.8229 100.86 69.8229H98.2058C97.821 69.8229 97.5088 69.5113 97.5088 69.1264V58.9175C97.5088 58.5327 97.821 58.2211 98.2058 58.2211H100.86C101.245 58.2211 101.557 58.5327 101.557 58.9175V62.0522C101.921 61.9991 102.19 61.8827 102.372 61.6997C102.839 61.2308 102.836 60.235 102.833 59.181L102.832 58.9168C102.832 58.5319 103.145 58.2203 103.529 58.2203H106.213C106.598 58.2203 106.91 58.5319 106.91 58.9168V59.0841C106.912 60.9932 106.913 62.9612 105.175 64.4072L107.609 68.3525C107.676 68.4623 107.713 68.5894 107.713 68.7179V69.1264C107.713 69.5113 107.401 69.8229 107.016 69.8229H104.112V69.8236Z" fill="white"/>
<path d="M104.112 69.8236C103.862 69.8236 103.631 69.6886 103.506 69.4711L101.557 66.0406V69.1264C101.557 69.5113 101.245 69.8229 100.86 69.8229H98.2058C97.821 69.8229 97.5088 69.5113 97.5088 69.1264V58.9175C97.5088 58.5327 97.821 58.2211 98.2058 58.2211H100.86C101.245 58.2211 101.557 58.5327 101.557 58.9175V62.0522C101.921 61.9991 102.19 61.8827 102.372 61.6997C102.839 61.2308 102.836 60.235 102.833 59.181L102.832 58.9168C102.832 58.5319 103.145 58.2203 103.529 58.2203H106.213C106.598 58.2203 106.91 58.5319 106.91 58.9168V59.0841C106.912 60.9932 106.913 62.9612 105.175 64.4072L107.609 68.3525C107.676 68.4623 107.713 68.5894 107.713 68.7179V69.1264C107.713 69.5113 107.401 69.8229 107.016 69.8229H104.112V69.8236Z" stroke="white" stroke-width="0.5545" stroke-miterlimit="10"/>
<path d="M108.517 69.8236C108.132 69.8236 107.82 69.512 107.82 69.1272V58.9175C107.82 58.5327 108.132 58.2211 108.517 58.2211H114.889C115.274 58.2211 115.587 58.5327 115.587 58.9175V61.2502C115.587 61.6351 115.274 61.9467 114.889 61.9467H111.808V61.9976H114.584C114.969 61.9976 115.281 62.3092 115.281 62.6941V65.0132C115.281 65.398 114.969 65.7096 114.584 65.7096H111.808V66.1102H115.021C115.406 66.1102 115.718 66.4218 115.718 66.8067V69.1265C115.718 69.5113 115.406 69.8229 115.021 69.8229H108.517V69.8236Z" fill="white"/>
<path d="M108.517 69.8236C108.132 69.8236 107.82 69.512 107.82 69.1272V58.9175C107.82 58.5327 108.132 58.2211 108.517 58.2211H114.889C115.274 58.2211 115.587 58.5327 115.587 58.9175V61.2502C115.587 61.6351 115.274 61.9467 114.889 61.9467H111.808V61.9976H114.584C114.969 61.9976 115.281 62.3092 115.281 62.6941V65.0132C115.281 65.398 114.969 65.7096 114.584 65.7096H111.808V66.1102H115.021C115.406 66.1102 115.718 66.4218 115.718 66.8067V69.1265C115.718 69.5113 115.406 69.8229 115.021 69.8229H108.517V69.8236Z" stroke="white" stroke-width="0.5545" stroke-miterlimit="10"/>
<path d="M45.3446 69.1273V58.9176C46.2204 58.9176 47.0947 58.9176 47.9992 58.9176V62.7825H48.1887C50.7988 62.7825 50.6668 60.8274 50.6668 58.9176C51.5569 58.9176 52.4463 58.9176 53.3494 58.9176C53.3494 61.0033 53.4082 62.9282 51.381 64.2256L54.1526 68.7187V69.1273H51.2504L49.0042 65.1748C48.6546 65.2322 48.333 65.2322 47.9992 65.2322V69.1273C47.0947 69.1273 46.2204 69.1273 45.3446 69.1273Z" fill="#00100F"/>
<path d="M61.9973 67.8436H57.9723L57.3758 69.1273H54.8231V68.7475L59.4145 58.7855H60.5387L65.1473 68.7475V69.1273H62.5953L61.9973 67.8436ZM59.9708 62.9283L58.8194 65.6121H61.1524L59.9708 62.9283Z" fill="#00100F"/>
<path d="M66.4896 69.1273C66.4896 65.7284 66.4896 62.3302 66.4896 58.9176C67.9634 58.9176 69.4788 58.9176 70.9812 58.9176C75.8662 58.932 75.8662 66.516 70.9812 66.516H69.0997V69.1273C68.2254 69.1273 67.3496 69.1273 66.4896 69.1273ZM70.9654 61.2503C70.3531 61.236 69.6977 61.2503 69.099 61.2503C69.099 62.0817 69.099 63.336 69.099 64.1682H70.9654C72.3954 64.1689 72.483 61.2654 70.9654 61.2503Z" fill="#00100F"/>
<path d="M81.8883 67.8436H77.8648L77.2661 69.1273H74.7141V68.7475L79.3076 58.7855H80.4297L85.0383 68.7475V69.1273H82.4849L81.8883 67.8436ZM79.8618 62.9283L78.709 65.6121H81.0434L79.8618 62.9283Z" fill="#00100F"/>
<path d="M85.7526 64.036C85.7526 56.9761 96.2232 56.9761 96.2232 64.036C96.2232 71.111 85.7526 71.111 85.7526 64.036ZM93.5549 64.036C93.5549 60.3607 88.4352 60.3607 88.4352 64.036C88.4352 67.7415 93.5549 67.7415 93.5549 64.036Z" fill="#00100F"/>
<path d="M98.2065 69.1273V58.9176C99.0823 58.9176 99.9567 58.9176 100.861 58.9176V62.7825H101.051C103.661 62.7825 103.529 60.8274 103.529 58.9176C104.42 58.9176 105.309 58.9176 106.213 58.9176C106.213 61.0033 106.271 62.9282 104.244 64.2256L107.015 68.7187V69.1273H104.112L101.866 65.1748C101.517 65.2322 101.195 65.2322 100.861 65.2322V69.1273C99.9567 69.1273 99.0816 69.1273 98.2065 69.1273Z" fill="#00100F"/>
<path d="M114.889 61.2503C113.373 61.2503 112.615 61.2503 111.111 61.2503V62.6949H114.584C114.584 63.4682 114.584 64.2407 114.584 65.014H111.111C111.111 65.612 111.111 66.195 111.111 66.8075C112.615 66.8075 113.489 66.8075 115.02 66.8075C115.02 67.5664 115.02 68.354 115.02 69.1273C112.63 69.1273 110.88 69.1273 108.516 69.1273C108.516 65.7147 108.516 62.3014 108.516 58.9176C110.88 58.9176 112.498 58.9176 114.889 58.9176C114.889 59.6751 114.889 60.462 114.889 61.2503Z" fill="#00100F"/>
<path d="M20.916 53.3847C20.2592 53.3847 19.7266 52.852 19.7266 52.195V34.7589C19.7266 34.102 20.2592 33.5692 20.916 33.5692H33.444C34.1008 33.5692 34.6335 34.102 34.6335 34.7589V38.7444C34.6335 39.4014 34.1008 39.9341 33.444 39.9341H30.8002C34.2394 40.7993 36.0283 43.6683 36.0326 46.5086C36.0383 49.9147 33.4821 53.3704 28.5892 53.3847C28.5885 53.3847 20.916 53.3847 20.916 53.3847ZM28.5619 47.0198C28.7277 47.0198 28.9531 46.9911 29.0852 46.8547C29.1656 46.7707 29.2123 46.6451 29.2123 46.5101C29.2123 46.3148 29.1276 45.9867 28.5626 45.9867H26.5648V47.0206H28.5619V47.0198Z" fill="white"/>
<path d="M20.916 53.3847C20.2592 53.3847 19.7266 52.852 19.7266 52.195V34.7589C19.7266 34.102 20.2592 33.5692 20.916 33.5692H33.444C34.1008 33.5692 34.6335 34.102 34.6335 34.7589V38.7444C34.6335 39.4014 34.1008 39.9341 33.444 39.9341H30.8002C34.2394 40.7993 36.0283 43.6683 36.0326 46.5086C36.0383 49.9147 33.4821 53.3704 28.5892 53.3847C28.5885 53.3847 20.916 53.3847 20.916 53.3847ZM28.5619 47.0198C28.7277 47.0198 28.9531 46.9911 29.0852 46.8547C29.1656 46.7707 29.2123 46.6451 29.2123 46.5101C29.2123 46.3148 29.1276 45.9867 28.5626 45.9867H26.5648V47.0206H28.5619V47.0198Z" stroke="white" stroke-width="0.9469" stroke-miterlimit="10"/>
<path d="M46.0696 53.7523C41.0353 53.7523 35.9399 50.2313 35.9399 43.5017C35.9399 36.7843 41.036 33.2698 46.0696 33.2698C51.1031 33.2698 56.1992 36.7843 56.1992 43.5017C56.1992 50.2306 51.1031 53.7523 46.0696 53.7523ZM46.081 39.9843C44.4975 39.9843 42.8995 41.0721 42.8995 43.5017C42.8995 45.9579 44.4975 47.0571 46.081 47.0571C47.6646 47.0571 49.2626 45.9579 49.2626 43.5017C49.2626 41.0721 47.6646 39.9843 46.081 39.9843Z" fill="white"/>
<path d="M46.0696 53.7523C41.0353 53.7523 35.9399 50.2313 35.9399 43.5017C35.9399 36.7843 41.036 33.2698 46.0696 33.2698C51.1031 33.2698 56.1992 36.7843 56.1992 43.5017C56.1992 50.2306 51.1031 53.7523 46.0696 53.7523ZM46.081 39.9843C44.4975 39.9843 42.8995 41.0721 42.8995 43.5017C42.8995 45.9579 44.4975 47.0571 46.081 47.0571C47.6646 47.0571 49.2626 45.9579 49.2626 43.5017C49.2626 41.0721 47.6646 39.9843 46.081 39.9843Z" stroke="white" stroke-width="0.9469" stroke-miterlimit="10"/>
<path d="M59.4424 53.3847C58.7856 53.3847 58.253 52.852 58.253 52.195V51.7226C58.253 51.5424 58.2946 51.3636 58.3729 51.2021L60.843 46.1267L55.2631 36.006C55.1662 35.8301 55.1152 35.632 55.1152 35.4317V34.7589C55.1152 34.102 55.6479 33.5692 56.3047 33.5692H61.2852C61.7317 33.5692 62.1401 33.8198 62.3447 34.2168L64.5866 38.5994L66.6073 34.257C66.8019 33.8377 67.2225 33.5692 67.6856 33.5692H72.516C73.1728 33.5692 73.7055 34.102 73.7055 34.7589V35.4317C73.7055 35.614 73.6631 35.7942 73.5827 35.9579L65.3159 52.7213C65.1156 53.1277 64.7022 53.3847 64.2492 53.3847H59.4424Z" fill="white"/>
<path d="M59.4424 53.3847C58.7856 53.3847 58.253 52.852 58.253 52.195V51.7226C58.253 51.5424 58.2946 51.3636 58.3729 51.2021L60.843 46.1267L55.2631 36.006C55.1662 35.8301 55.1152 35.632 55.1152 35.4317V34.7589C55.1152 34.102 55.6479 33.5692 56.3047 33.5692H61.2852C61.7317 33.5692 62.1401 33.8198 62.3447 34.2168L64.5866 38.5994L66.6073 34.257C66.8019 33.8377 67.2225 33.5692 67.6856 33.5692H72.516C73.1728 33.5692 73.7055 34.102 73.7055 34.7589V35.4317C73.7055 35.614 73.6631 35.7942 73.5827 35.9579L65.3159 52.7213C65.1156 53.1277 64.7022 53.3847 64.2492 53.3847H59.4424V53.3847Z" stroke="white" stroke-width="0.9469" stroke-miterlimit="10"/>
<path d="M84.4467 53.3847C83.975 53.3847 83.5472 53.1055 83.357 52.6732L79.9694 44.9557L76.6213 52.6689C76.4318 53.1033 76.004 53.3847 75.5295 53.3847H71.1714C70.5146 53.3847 69.9819 52.852 69.9819 52.1951V51.5474C69.9819 51.3751 70.0193 51.205 70.091 51.0492L77.9365 34.0374C78.131 33.6159 78.5524 33.3459 79.0168 33.3459H80.9342C81.3979 33.3459 81.8186 33.6152 82.0139 34.0359L89.8837 51.0477C89.9562 51.2042 89.9935 51.3751 89.9935 51.5474V52.1951C89.9935 52.852 89.4609 53.3847 88.804 53.3847H84.4467Z" fill="white"/>
<path d="M84.4467 53.3847C83.975 53.3847 83.5472 53.1055 83.357 52.6732L79.9694 44.9557L76.6213 52.6689C76.4318 53.1033 76.004 53.3847 75.5295 53.3847H71.1714C70.5146 53.3847 69.9819 52.852 69.9819 52.1951V51.5474C69.9819 51.3751 70.0193 51.205 70.091 51.0492L77.9365 34.0374C78.131 33.6159 78.5524 33.3459 79.0168 33.3459H80.9342C81.3979 33.3459 81.8186 33.6152 82.0139 34.0359L89.8837 51.0477C89.9562 51.2042 89.9935 51.3751 89.9935 51.5474V52.1951C89.9935 52.852 89.4609 53.3847 88.804 53.3847H84.4467V53.3847Z" stroke="white" stroke-width="0.9469" stroke-miterlimit="10"/>
<path d="M91.1199 53.4098C90.4631 53.4098 89.9304 52.8771 89.9304 52.2201V34.7589C89.9304 34.1019 90.4631 33.5692 91.1199 33.5692H95.6776C96.3344 33.5692 96.867 34.1019 96.867 34.7589V40.4761L103.663 33.8334C103.885 33.6158 104.184 33.4945 104.494 33.4945H106.114C106.771 33.4945 107.303 34.0272 107.303 34.6842V52.195C107.303 52.8519 106.771 53.3847 106.114 53.3847H101.506C100.849 53.3847 100.316 52.8519 100.316 52.195V46.4533L93.5462 53.0709C93.3237 53.2885 93.0251 53.4098 92.715 53.4098H91.1199Z" fill="white"/>
<path d="M91.1199 53.4098C90.4631 53.4098 89.9304 52.8771 89.9304 52.2201V34.7589C89.9304 34.1019 90.4631 33.5692 91.1199 33.5692H95.6776C96.3344 33.5692 96.867 34.1019 96.867 34.7589V40.4761L103.663 33.8334C103.885 33.6158 104.184 33.4945 104.494 33.4945H106.114C106.771 33.4945 107.303 34.0272 107.303 34.6842V52.195C107.303 52.852 106.771 53.3847 106.114 53.3847H101.506C100.849 53.3847 100.316 52.852 100.316 52.195V46.4533L93.5462 53.0709C93.3237 53.2885 93.0251 53.4098 92.715 53.4098H91.1199Z" stroke="white" stroke-width="0.9469" stroke-miterlimit="10"/>
<path d="M120.532 53.3847C119.875 53.3847 119.342 52.852 119.342 52.195V46.3859H116.341V52.195C116.341 52.852 115.808 53.3847 115.151 53.3847H110.594C109.937 53.3847 109.404 52.852 109.404 52.195V34.7589C109.404 34.102 109.937 33.5692 110.594 33.5692H115.151C115.808 33.5692 116.341 34.102 116.341 34.7589V39.896H119.342V34.7589C119.342 34.102 119.875 33.5692 120.532 33.5692H125.09C125.747 33.5692 126.28 34.102 126.28 34.7589V52.195C126.28 52.852 125.747 53.3847 125.09 53.3847H120.532Z" fill="white"/>
<path d="M120.532 53.3847C119.875 53.3847 119.342 52.852 119.342 52.195V46.3859H116.341V52.195C116.341 52.852 115.808 53.3847 115.151 53.3847H110.594C109.937 53.3847 109.404 52.852 109.404 52.195V34.7589C109.404 34.102 109.937 33.5692 110.594 33.5692H115.151C115.808 33.5692 116.341 34.102 116.341 34.7589V39.896H119.342V34.7589C119.342 34.102 119.875 33.5692 120.532 33.5692H125.09C125.747 33.5692 126.28 34.102 126.28 34.7589V52.195C126.28 52.852 125.747 53.3847 125.09 53.3847H120.532V53.3847Z" stroke="white" stroke-width="0.9469" stroke-miterlimit="10"/>
<path d="M129.547 53.3847C128.89 53.3847 128.358 52.852 128.358 52.195V34.7589C128.358 34.102 128.89 33.5692 129.547 33.5692H140.405C141.062 33.5692 141.595 34.102 141.595 34.7589V38.7444C141.595 39.4014 141.062 39.9341 140.405 39.9341H135.268V52.195C135.268 52.852 134.736 53.3847 134.079 53.3847H129.547Z" fill="white"/>
<path d="M129.547 53.3847C128.89 53.3847 128.358 52.852 128.358 52.195V34.7589C128.358 34.102 128.89 33.5692 129.547 33.5692H140.405C141.062 33.5692 141.595 34.102 141.595 34.7589V38.7444C141.595 39.4014 141.062 39.9341 140.405 39.9341H135.268V52.195C135.268 52.852 134.736 53.3847 134.079 53.3847H129.547V53.3847Z" stroke="white" stroke-width="0.9469" stroke-miterlimit="10"/>
<path d="M28.5856 40.8616C36.9292 40.8616 36.9292 52.1705 28.5856 52.1949H20.916V34.7588H33.444V38.7443H25.3746V40.8616H28.5856ZM25.3746 44.7961V48.2094C26.3954 48.2094 27.5152 48.2094 28.5619 48.2094C31.027 48.2094 31.0018 44.7961 28.5619 44.7961H25.3746Z" fill="#00100F"/>
<path d="M37.1294 43.5016C37.1294 31.4453 55.0097 31.4453 55.0097 43.5016C55.0097 55.5823 37.1294 55.5823 37.1294 43.5016ZM50.452 43.5016C50.452 37.225 41.71 37.225 41.71 43.5016C41.71 49.8284 50.452 49.8284 50.452 43.5016Z" fill="#00100F"/>
<path d="M59.4424 51.7225L62.1825 46.0928L56.3047 35.4315V34.7588H61.2852L64.5729 41.1847H64.6957L67.6855 34.7588H72.516V35.4315L64.2492 52.1949H59.4424V51.7225Z" fill="#00100F"/>
<path d="M75.5302 52.1949H71.1721V51.5473L79.0168 34.5348H80.9342L88.804 51.5466V52.1942H84.4466L79.9637 41.9817L75.5302 52.1949Z" fill="#00100F"/>
<path d="M92.7142 52.22H91.1191V34.7588C92.6381 34.7588 94.1585 34.7588 95.6768 34.7588V43.3027L104.493 34.6841H106.113V52.1949C104.593 52.1949 103.048 52.1949 101.505 52.1949V43.6265L92.7142 52.22Z" fill="#00100F"/>
<path d="M125.09 52.1949C123.57 52.1949 122.051 52.1949 120.532 52.1949V45.1961H115.151V52.1949C113.634 52.1949 112.088 52.1949 110.594 52.1949V34.7588C112.088 34.7588 113.633 34.7588 115.151 34.7588V41.0856H120.532V34.7588C122.051 34.7588 123.57 34.7588 125.09 34.7588V52.1949Z" fill="#00100F"/>
<path d="M134.078 52.1949C132.584 52.1949 131.065 52.1949 129.547 52.1949V34.7588C133.109 34.7588 136.844 34.7588 140.405 34.7588C140.405 36.2278 140.405 37.2502 140.405 38.7443H134.079V52.1949H134.078Z" fill="#00100F"/>
<path d="M57.7691 26.4489C56.5797 26.4489 55.622 26.2048 54.9236 25.7223C54.1318 25.1781 53.7133 24.3804 53.7133 23.4176C53.7133 22.989 53.7966 22.4806 53.9674 21.8639C54.0191 21.7002 54.0751 21.53 54.1361 21.3462C54.0586 21.5135 53.9796 21.6822 53.9006 21.8538C53.5202 22.6896 53.1591 23.5066 52.8203 24.3014C52.7183 24.5412 52.5166 24.7243 52.2682 24.8026L48.2605 26.072C48.1722 26.1 48.0817 26.1136 47.9913 26.1136C47.7508 26.1136 47.5161 26.016 47.3452 25.8365C47.1098 25.5895 47.0358 25.2298 47.1543 24.9096L49.6675 18.1498C49.2647 19.0516 48.8075 19.9361 48.3078 20.7733C47.7673 21.6794 47.1449 22.574 46.4579 23.4327C45.0014 25.2973 43.3941 26.2464 41.6885 26.2464C40.8228 26.2464 39.9973 25.9822 39.2342 25.461C38.6118 25.0934 38.2701 24.2117 38.0641 22.4526C38.0605 22.4182 38.0583 22.3837 38.0583 22.3485C38.0583 21.4295 38.7152 21.1861 39.0626 21.1861C39.3584 21.1861 39.8939 21.3082 40.1976 22.1152C40.4072 22.5481 40.7489 22.9624 41.2119 23.3465C41.5995 23.6466 41.9728 23.8154 42.2693 23.8154C42.3569 23.8154 42.6225 23.8154 42.9893 23.3645C43.2456 23.0486 43.7358 22.2588 44.6152 20.2851L45.7272 17.7671C46.4802 16.0784 47.1751 14.6654 47.7924 13.5655C48.4421 12.4059 49.282 11.3268 50.2891 10.3583C51.4061 9.28274 52.6781 8.73779 54.0708 8.73779C54.9401 8.73779 55.6788 8.99339 56.2667 9.49885C56.8618 10.0108 57.187 10.6986 57.2107 11.4941C57.5667 11.0684 57.9378 10.672 58.3219 10.308C59.357 9.3251 60.4819 8.82682 61.6635 8.82682C62.2414 8.82682 62.741 8.97903 63.148 9.27843C63.6268 9.62952 63.891 10.1508 63.891 10.7445C63.891 10.8214 63.8809 10.8982 63.8616 10.9721L63.7503 11.3943C63.7395 11.4338 63.7273 11.4726 63.7108 11.5099L61.3067 17.2782L60.2134 19.8457C59.9981 20.364 59.8071 20.8372 59.6485 21.2586C59.4453 21.767 59.2874 22.1963 59.1725 22.5524C58.9206 23.335 58.8423 23.7601 58.8215 23.9812C58.8818 24.0042 58.9378 24.015 58.9902 24.015C59.3664 24.015 60.3211 23.8484 62.4768 22.7334C62.6053 22.6666 62.746 22.6336 62.8867 22.6336C63.0138 22.6336 63.1408 22.6608 63.2593 22.7147C63.5091 22.8289 63.6921 23.0521 63.7553 23.3192L63.8666 23.7866C63.9606 24.1822 63.7754 24.5922 63.4165 24.7825C62.4151 25.3138 61.4367 25.7252 60.507 26.0066C59.5465 26.301 58.6248 26.4489 57.7691 26.4489Z" fill="white"/>
<path d="M57.7691 26.4489C56.5797 26.4489 55.622 26.2048 54.9236 25.7223C54.1318 25.1781 53.7133 24.3804 53.7133 23.4176C53.7133 22.989 53.7966 22.4806 53.9674 21.8639C54.0191 21.7002 54.0751 21.53 54.1361 21.3462C54.0586 21.5135 53.9796 21.6822 53.9006 21.8538C53.5202 22.6896 53.1591 23.5066 52.8203 24.3014C52.7183 24.5412 52.5166 24.7243 52.2682 24.8026L48.2605 26.072C48.1722 26.1 48.0817 26.1136 47.9913 26.1136C47.7508 26.1136 47.5161 26.016 47.3452 25.8365C47.1098 25.5895 47.0358 25.2298 47.1543 24.9096L49.6675 18.1498C49.2647 19.0516 48.8075 19.9361 48.3078 20.7733C47.7673 21.6794 47.1449 22.574 46.4579 23.4327C45.0014 25.2973 43.3941 26.2464 41.6885 26.2464C40.8228 26.2464 39.9973 25.9822 39.2342 25.461C38.6118 25.0934 38.2701 24.2117 38.0641 22.4526C38.0605 22.4182 38.0583 22.3837 38.0583 22.3485C38.0583 21.4295 38.7152 21.1861 39.0626 21.1861C39.3584 21.1861 39.8939 21.3082 40.1976 22.1152C40.4072 22.5481 40.7489 22.9624 41.2119 23.3465C41.5995 23.6466 41.9728 23.8154 42.2693 23.8154C42.3569 23.8154 42.6225 23.8154 42.9893 23.3645C43.2456 23.0486 43.7358 22.2588 44.6152 20.2851L45.7272 17.7671C46.4802 16.0784 47.1751 14.6654 47.7924 13.5655C48.4421 12.4059 49.282 11.3268 50.2891 10.3583C51.4061 9.28274 52.6781 8.73779 54.0708 8.73779C54.9401 8.73779 55.6788 8.99339 56.2667 9.49885C56.8618 10.0108 57.187 10.6986 57.2107 11.4941C57.5667 11.0684 57.9378 10.672 58.3219 10.308C59.357 9.3251 60.4819 8.82682 61.6635 8.82682C62.2414 8.82682 62.741 8.97903 63.148 9.27843C63.6268 9.62952 63.891 10.1508 63.891 10.7445C63.891 10.8214 63.8809 10.8982 63.8616 10.9721L63.7503 11.3943C63.7395 11.4338 63.7273 11.4726 63.7108 11.5099L61.3067 17.2782L60.2134 19.8457C59.9981 20.364 59.8071 20.8372 59.6485 21.2586C59.4453 21.767 59.2874 22.1963 59.1725 22.5524C58.9206 23.335 58.8423 23.7601 58.8215 23.9812C58.8818 24.0042 58.9378 24.015 58.9902 24.015C59.3664 24.015 60.3211 23.8484 62.4768 22.7334C62.6053 22.6666 62.746 22.6336 62.8867 22.6336C63.0138 22.6336 63.1408 22.6608 63.2593 22.7147C63.5091 22.8289 63.6921 23.0521 63.7553 23.3192L63.8666 23.7866C63.9606 24.1822 63.7754 24.5922 63.4165 24.7825C62.4151 25.3138 61.4367 25.7252 60.507 26.0066C59.5465 26.301 58.6248 26.4489 57.7691 26.4489Z" stroke="white" stroke-width="0.9948" stroke-miterlimit="10"/>
<path d="M65.5392 26.2478C61.6807 26.2478 61.105 24.0515 61.105 22.7433C61.105 22.0907 61.2098 21.4359 61.4158 20.7954C61.6175 20.1722 61.9363 19.5225 62.3634 18.8641C63.1753 17.6335 64.209 16.6908 65.4408 16.0568C66.2692 15.5628 67.0445 15.3094 67.7652 15.3094C67.8155 15.3094 67.8657 15.3122 67.9138 15.318C68.3869 14.8154 69.0143 14.5526 69.7479 14.5526C70.6251 14.5526 71.3703 14.9367 71.9029 15.6619C72.3803 16.3196 72.6201 17.1962 72.6201 18.2732C72.6201 19.2152 72.4736 20.1019 72.1843 20.9204C72.2245 20.9218 72.2654 20.9218 72.3078 20.9218C72.8397 20.9218 73.3236 20.8328 73.7449 20.6562C73.8548 20.6102 73.9718 20.5872 74.0888 20.5872C74.2237 20.5872 74.358 20.6174 74.4822 20.6784C74.7133 20.7919 74.8849 20.9993 74.9509 21.2485L75.0407 21.5831C75.1548 22.0103 74.9394 22.4568 74.5346 22.6335C73.844 22.9336 73.1549 23.0858 72.4858 23.0858C72.0436 23.0858 71.6122 23.0434 71.1973 22.9609C69.8111 25.1428 67.9109 26.2478 65.5392 26.2478ZM67.2965 19.572C67.0825 20.0473 66.8736 20.5506 66.6726 21.0762C66.2915 22.0727 66.0969 22.9573 66.0969 23.704C66.0969 23.8942 66.1328 23.9883 66.1508 24.0106C66.771 23.9955 67.5161 23.042 68.1974 21.3612C67.7875 20.7926 67.4867 20.1945 67.2965 19.572Z" fill="white"/>
<path d="M65.5392 26.2478C61.6807 26.2478 61.105 24.0515 61.105 22.7433C61.105 22.0907 61.2098 21.4359 61.4158 20.7954C61.6175 20.1722 61.9363 19.5225 62.3634 18.8641C63.1753 17.6335 64.209 16.6908 65.4408 16.0568C66.2692 15.5628 67.0445 15.3094 67.7652 15.3094C67.8155 15.3094 67.8657 15.3122 67.9138 15.318C68.3869 14.8154 69.0143 14.5526 69.7479 14.5526C70.6251 14.5526 71.3703 14.9367 71.9029 15.6619C72.3803 16.3196 72.6201 17.1962 72.6201 18.2732C72.6201 19.2152 72.4736 20.1019 72.1843 20.9204C72.2245 20.9218 72.2654 20.9218 72.3078 20.9218C72.8397 20.9218 73.3236 20.8328 73.7449 20.6562C73.8548 20.6102 73.9718 20.5872 74.0888 20.5872C74.2237 20.5872 74.358 20.6174 74.4822 20.6784C74.7133 20.7919 74.8849 20.9993 74.9509 21.2485L75.0407 21.5831C75.1548 22.0103 74.9394 22.4568 74.5346 22.6335C73.844 22.9336 73.1549 23.0858 72.4858 23.0858C72.0436 23.0858 71.6122 23.0434 71.1973 22.9609C69.8111 25.1428 67.9109 26.2478 65.5392 26.2478ZM67.2965 19.572C67.0825 20.0473 66.8736 20.5506 66.6726 21.0762C66.2915 22.0727 66.0969 22.9573 66.0969 23.704C66.0969 23.8942 66.1328 23.9883 66.1508 24.0106C66.771 23.9955 67.5161 23.042 68.1974 21.3612C67.7875 20.7926 67.4867 20.1945 67.2965 19.572Z" stroke="white" stroke-width="0.9948" stroke-miterlimit="10"/>
<path d="M73.2855 30.4961C73.0436 30.4961 72.8081 30.3978 72.6373 30.2168C72.4061 29.972 72.3315 29.6188 72.4456 29.3014L73.778 25.5895C72.961 25.0459 72.8175 24.2985 72.8175 23.8405C72.8175 23.3975 72.9524 22.7771 73.6014 22.3442C73.5877 22.2911 73.5798 22.2365 73.5762 22.1805L73.5317 21.4446C73.5303 20.3432 73.9337 19.3811 74.7291 18.5296C75.3522 17.8626 76.06 17.3155 76.8389 16.899L76.9868 16.4805C77.0916 16.1832 77.3457 15.9635 77.6551 15.9018L81.1295 15.2103C81.1869 15.1989 81.2458 15.1931 81.3032 15.1931C81.5566 15.1931 81.8014 15.3008 81.973 15.4954C82.0728 15.6088 82.1402 15.7431 82.1733 15.8852L82.6233 15.8429C82.6506 15.8407 82.6786 15.8393 82.7059 15.8393C83.9377 15.8393 84.9248 16.1358 85.6405 16.721C86.4122 17.3471 86.8041 18.251 86.8041 19.4062C86.8041 21.232 85.8666 22.8425 84.0131 24.2088C84.1481 24.2296 84.2766 24.2404 84.3979 24.2404C84.8903 24.2404 85.7876 23.9561 87.27 22.6034C87.4344 22.4526 87.649 22.37 87.8716 22.37C87.8895 22.37 87.9082 22.3708 87.9261 22.3715C88.1666 22.3865 88.3913 22.4978 88.5485 22.6816L88.8155 22.9932C88.9728 23.1756 89.0488 23.4147 89.0273 23.6545C89.0058 23.8943 88.888 24.1154 88.7007 24.2677C88.3044 24.5893 87.9168 24.8866 87.5421 25.1623C87.1724 25.4344 86.812 25.6806 86.4725 25.8917C85.7489 26.3362 84.9097 26.5609 83.9751 26.5609C83.0052 26.5609 81.9723 26.3426 80.8983 25.9125C80.1805 26.1545 79.444 26.3038 78.6988 26.3591L77.8726 28.7809C77.7793 29.0544 77.5589 29.2655 77.2825 29.3481L73.5411 30.4602C73.4556 30.4839 73.3702 30.4961 73.2855 30.4961ZM80.3707 22.7585C80.7131 22.2035 81.0118 21.6025 81.2623 20.9635C81.5825 20.1465 81.7454 19.4586 81.7454 18.918C81.7454 18.6157 81.6923 18.3788 81.5997 18.2689C81.5681 18.2316 81.5401 18.2065 81.5078 18.19L79.9824 22.6149L80.3707 22.7585Z" fill="white"/>
<path d="M73.2855 30.4961C73.0436 30.4961 72.8081 30.3978 72.6373 30.2168C72.4061 29.972 72.3315 29.6188 72.4456 29.3014L73.778 25.5895C72.961 25.0459 72.8175 24.2985 72.8175 23.8405C72.8175 23.3975 72.9524 22.7771 73.6014 22.3442C73.5877 22.2911 73.5798 22.2365 73.5762 22.1805L73.5317 21.4446C73.5303 20.3432 73.9337 19.3811 74.7291 18.5296C75.3522 17.8626 76.06 17.3155 76.8389 16.899L76.9868 16.4805C77.0916 16.1832 77.3457 15.9635 77.6551 15.9018L81.1295 15.2103C81.1869 15.1989 81.2458 15.1931 81.3032 15.1931C81.5566 15.1931 81.8014 15.3008 81.973 15.4954C82.0728 15.6088 82.1402 15.7431 82.1733 15.8852L82.6233 15.8429C82.6506 15.8407 82.6786 15.8393 82.7059 15.8393C83.9377 15.8393 84.9248 16.1358 85.6405 16.721C86.4122 17.3471 86.8041 18.251 86.8041 19.4062C86.8041 21.232 85.8666 22.8425 84.0131 24.2088C84.1481 24.2296 84.2766 24.2404 84.3979 24.2404C84.8903 24.2404 85.7876 23.9561 87.27 22.6034C87.4344 22.4526 87.649 22.37 87.8716 22.37C87.8895 22.37 87.9082 22.3708 87.9261 22.3715C88.1666 22.3866 88.3913 22.4978 88.5485 22.6816L88.8155 22.9932C88.9728 23.1756 89.0488 23.4147 89.0273 23.6545C89.0058 23.8943 88.888 24.1154 88.7007 24.2677C88.3044 24.5893 87.9168 24.8866 87.5421 25.1623C87.1724 25.4344 86.812 25.6806 86.4725 25.8917C85.7489 26.3362 84.9097 26.5609 83.9751 26.5609C83.0052 26.5609 81.9723 26.3426 80.8983 25.9125C80.1805 26.1545 79.444 26.3038 78.6988 26.3591L77.8726 28.7809C77.7793 29.0544 77.5589 29.2655 77.2825 29.3481L73.5411 30.4602C73.4556 30.4839 73.3702 30.4961 73.2855 30.4961ZM80.3707 22.7585C80.7131 22.2035 81.0118 21.6025 81.2623 20.9635C81.5825 20.1465 81.7454 19.4586 81.7454 18.918C81.7454 18.6157 81.6923 18.3788 81.5997 18.2689C81.5681 18.2316 81.5401 18.2065 81.5078 18.19L79.9824 22.6149L80.3707 22.7585Z" stroke="white" stroke-width="0.9948" stroke-miterlimit="10"/>
<path d="M90.9878 26.2478C87.092 26.2478 86.5112 24.3215 86.5112 23.1727C86.5112 22.3133 86.7409 21.2851 87.2147 20.0287C88.4107 16.9528 90.5843 15.3309 93.5045 15.3309C96.279 15.3309 96.5784 17.0771 96.5784 17.8273C96.5784 18.9259 96.0651 19.9684 95.053 20.9261C94.2303 21.7037 93.1126 22.4045 91.725 23.0104V23.2165C91.725 23.5496 91.8262 23.6882 91.9145 23.7708C92.0251 23.8656 92.2483 23.9273 92.5469 23.9273C93.7493 23.9273 94.9941 23.4865 96.2475 22.617C96.3982 22.5122 96.5755 22.4576 96.7564 22.4576C96.8146 22.4576 96.8727 22.4633 96.9309 22.4748C97.1685 22.5222 97.3766 22.6644 97.5073 22.8683L97.7298 23.2143C97.8583 23.4139 97.9014 23.6559 97.8511 23.8878C97.8009 24.1197 97.6595 24.3215 97.4599 24.4493C96.4571 25.0904 95.4255 25.5636 94.394 25.8558C93.8656 25.9893 93.3416 26.087 92.8125 26.1523C92.2856 26.2162 91.6891 26.2478 90.9878 26.2478Z" fill="white"/>
<path d="M90.9878 26.2478C87.092 26.2478 86.5112 24.3215 86.5112 23.1727C86.5112 22.3133 86.7409 21.2851 87.2147 20.0287C88.4107 16.9528 90.5843 15.3309 93.5045 15.3309C96.279 15.3309 96.5784 17.0771 96.5784 17.8273C96.5784 18.9259 96.0651 19.9684 95.053 20.9261C94.2303 21.7037 93.1126 22.4045 91.725 23.0104V23.2165C91.725 23.5496 91.8262 23.6882 91.9145 23.7708C92.0251 23.8656 92.2483 23.9273 92.5469 23.9273C93.7493 23.9273 94.9941 23.4865 96.2475 22.617C96.3982 22.5122 96.5755 22.4576 96.7564 22.4576C96.8146 22.4576 96.8727 22.4633 96.9309 22.4748C97.1685 22.5222 97.3766 22.6644 97.5073 22.8683L97.7298 23.2143C97.8583 23.4139 97.9014 23.6559 97.8511 23.8878C97.8009 24.1197 97.6595 24.3215 97.4599 24.4493C96.4571 25.0904 95.4255 25.5636 94.394 25.8558C93.8656 25.9893 93.3416 26.087 92.8125 26.1523C92.2856 26.2162 91.6891 26.2478 90.9878 26.2478Z" stroke="white" stroke-width="0.9948" stroke-miterlimit="10"/>
<path d="M99.7621 26.2479C95.9043 26.2479 95.3286 24.0516 95.3286 22.7434C95.3286 22.0886 95.4334 21.4331 95.6394 20.7941C95.8383 20.1781 96.157 19.5283 96.5856 18.8649C97.3982 17.6321 98.4326 16.6894 99.6659 16.0555C100.494 15.5615 101.268 15.3088 101.987 15.3088C102.038 15.3088 102.088 15.3116 102.137 15.3174C102.609 14.8148 103.236 14.552 103.97 14.552C104.849 14.552 105.594 14.9361 106.126 15.6627C106.603 16.3168 106.844 17.1949 106.844 18.2726C106.844 19.2146 106.698 20.1013 106.409 20.9198C106.449 20.9212 106.489 20.9212 106.531 20.9212C107.063 20.9212 107.546 20.8322 107.967 20.6555C108.077 20.6096 108.194 20.5866 108.311 20.5866C108.446 20.5866 108.58 20.6168 108.704 20.6778C108.936 20.7912 109.107 20.9987 109.173 21.2479L109.263 21.5825C109.377 22.0097 109.162 22.4562 108.757 22.6321C108.067 22.9323 107.378 23.0845 106.709 23.0845C106.267 23.0845 105.835 23.0421 105.42 22.9595C104.035 25.1429 102.135 26.2479 99.7621 26.2479ZM101.519 19.5735C101.306 20.0474 101.097 20.5507 100.895 21.077C100.514 22.0743 100.319 22.9588 100.319 23.7041C100.319 23.8929 100.354 23.9855 100.373 24.0078C100.994 23.9956 101.74 23.0421 102.421 21.3613C102.01 20.7927 101.71 20.1953 101.519 19.5735Z" fill="white"/>
<path d="M99.7621 26.2479C95.9043 26.2479 95.3286 24.0516 95.3286 22.7434C95.3286 22.0886 95.4334 21.4331 95.6394 20.7941C95.8383 20.1781 96.157 19.5283 96.5856 18.8649C97.3982 17.6321 98.4326 16.6894 99.6659 16.0555C100.494 15.5615 101.268 15.3088 101.987 15.3088C102.038 15.3088 102.088 15.3116 102.137 15.3174C102.609 14.8148 103.236 14.552 103.97 14.552C104.849 14.552 105.594 14.9361 106.126 15.6627C106.603 16.3168 106.844 17.1949 106.844 18.2726C106.844 19.2146 106.698 20.1013 106.409 20.9198C106.449 20.9212 106.489 20.9212 106.531 20.9212C107.063 20.9212 107.546 20.8322 107.967 20.6555C108.077 20.6096 108.194 20.5866 108.311 20.5866C108.446 20.5866 108.58 20.6168 108.704 20.6778C108.936 20.7912 109.107 20.9987 109.173 21.2479L109.263 21.5825C109.377 22.0097 109.162 22.4562 108.757 22.6321C108.067 22.9323 107.378 23.0845 106.709 23.0845C106.267 23.0845 105.835 23.0421 105.42 22.9595C104.035 25.1429 102.135 26.2479 99.7621 26.2479ZM101.519 19.5735C101.306 20.0474 101.097 20.5507 100.895 21.077C100.514 22.0743 100.319 22.9588 100.319 23.7041C100.319 23.8929 100.354 23.9855 100.373 24.0078C100.994 23.9956 101.74 23.0421 102.421 21.3613C102.01 20.7927 101.71 20.1953 101.519 19.5735Z" stroke="white" stroke-width="0.9948" stroke-miterlimit="10"/>
<path d="M116.706 26.1811C115.656 26.1811 114.793 25.9399 114.142 25.4632C113.413 24.9304 113.029 24.1694 113.029 23.2618C113.029 22.7693 113.165 22.2373 113.448 21.6356L113.562 21.3413C113.557 21.3434 113.552 21.3463 113.548 21.3484C113.447 21.4461 113.189 21.7613 112.811 22.686C112.502 23.5404 112.167 24.2483 111.8 24.8156C111.57 25.204 111.319 25.517 111.051 25.7446C111.024 25.7676 110.996 25.7891 110.967 25.8078C110.596 26.0548 110.115 26.1804 109.536 26.1804C106.902 26.1804 106.618 24.4336 106.618 23.6826C106.618 23.1843 106.73 22.658 106.951 22.1188L108.967 16.6873C109.077 16.3901 109.337 16.174 109.648 16.1187L113.3 15.4725C113.352 15.4632 113.404 15.4588 113.456 15.4588C113.719 15.4588 113.972 15.5752 114.143 15.7819C114.348 16.0289 114.404 16.3671 114.291 16.6672L113.381 19.0717C113.513 19.0566 113.648 19.0495 113.789 19.0495C113.939 19.0495 114.144 19.066 114.406 19.1033C114.412 19.104 114.418 19.1047 114.424 19.1062L115.385 16.678C115.5 16.3908 115.754 16.1826 116.058 16.128L119.71 15.4725C119.763 15.4632 119.815 15.4581 119.868 15.4581C120.133 15.4581 120.387 15.5759 120.558 15.7841C120.763 16.0339 120.817 16.375 120.7 16.6758L118.183 23.129C118.077 23.4227 118.024 23.6022 117.999 23.7034C118.013 23.7041 118.027 23.7041 118.043 23.7041C118.195 23.7041 118.307 23.7027 118.378 23.6912C118.431 23.6783 118.525 23.6395 118.652 23.5857C118.81 23.5189 118.925 23.4722 118.998 23.4435C119.173 23.3545 119.353 23.2539 119.54 23.1412L120.574 22.5352C120.715 22.452 120.871 22.4125 121.025 22.4125C121.313 22.4125 121.597 22.5532 121.768 22.8095L121.946 23.0766C122.206 23.4672 122.12 23.9935 121.748 24.2799C120.11 25.5421 118.414 26.1811 116.706 26.1811Z" fill="white"/>
<path d="M116.706 26.1811C115.656 26.1811 114.793 25.9399 114.142 25.4632C113.413 24.9304 113.029 24.1694 113.029 23.2618C113.029 22.7693 113.165 22.2373 113.448 21.6356L113.562 21.3413C113.557 21.3434 113.552 21.3463 113.548 21.3484C113.447 21.4461 113.189 21.7613 112.811 22.686C112.502 23.5404 112.167 24.2483 111.8 24.8156C111.57 25.204 111.319 25.517 111.051 25.7446C111.024 25.7676 110.996 25.7891 110.967 25.8078C110.596 26.0548 110.115 26.1804 109.536 26.1804C106.902 26.1804 106.618 24.4336 106.618 23.6826C106.618 23.1843 106.73 22.658 106.951 22.1188L108.967 16.6873C109.077 16.3901 109.337 16.174 109.648 16.1187L113.3 15.4725C113.352 15.4632 113.404 15.4588 113.456 15.4588C113.719 15.4588 113.972 15.5752 114.143 15.7819C114.348 16.0289 114.404 16.3671 114.291 16.6672L113.381 19.0717C113.513 19.0566 113.648 19.0495 113.789 19.0495C113.939 19.0495 114.144 19.066 114.406 19.1033C114.412 19.104 114.418 19.1047 114.424 19.1062L115.385 16.678C115.5 16.3908 115.754 16.1826 116.058 16.128L119.71 15.4725C119.763 15.4632 119.815 15.4581 119.868 15.4581C120.133 15.4581 120.387 15.5759 120.558 15.7841C120.763 16.0339 120.817 16.375 120.7 16.6758L118.183 23.129C118.077 23.4227 118.024 23.6022 117.999 23.7034C118.013 23.7041 118.027 23.7041 118.043 23.7041C118.195 23.7041 118.307 23.7027 118.378 23.6912C118.431 23.6783 118.525 23.6395 118.652 23.5857C118.81 23.5189 118.925 23.4722 118.998 23.4435C119.173 23.3545 119.353 23.2539 119.54 23.1412L120.574 22.5352C120.715 22.452 120.871 22.4125 121.025 22.4125C121.313 22.4125 121.597 22.5532 121.768 22.8095L121.946 23.0766C122.206 23.4672 122.12 23.9935 121.748 24.2799C120.11 25.5421 118.414 26.1811 116.706 26.1811Z" stroke="white" stroke-width="0.9948" stroke-miterlimit="10"/>
<path d="M62.8882 23.5288L62.9995 23.9962C62.049 24.5009 61.1331 24.8872 60.2501 25.1543C59.3671 25.4221 58.5387 25.5556 57.7685 25.5556C56.7577 25.5556 55.9782 25.3654 55.4297 24.987C54.8798 24.6086 54.6056 24.0852 54.6056 23.4168C54.6056 23.0757 54.6796 22.6371 54.8282 22.1022C54.9186 21.82 55.0335 21.4754 55.1727 21.0668C55.3141 20.659 55.5029 20.1572 55.7398 19.5634C57.1956 15.6877 58.8137 12.6449 60.5961 10.4328C59.7189 10.6999 58.7067 11.6757 57.556 13.3608C56.4053 15.0466 55.3479 16.8458 54.3831 18.7621C53.9667 19.6079 53.536 20.514 53.091 21.4782C52.7055 22.3247 52.3415 23.149 51.9998 23.9502L47.9921 25.2196L53.3322 10.8543L53.442 10.4774C53.442 10.2986 53.3322 10.1959 53.1082 10.1658C52.7679 10.1658 52.3573 10.5779 51.8756 11.4021C51.394 12.2264 50.9546 13.0915 50.5541 13.9976L48.9432 17.5796C48.5276 18.5331 48.0602 19.4456 47.5412 20.3165C47.0215 21.1875 46.4293 22.0404 45.7617 22.8747C44.4703 24.5275 43.1135 25.3539 41.6893 25.3539C40.9901 25.3539 40.3311 25.1371 39.7088 24.7041C39.3671 24.5253 39.1144 23.7392 38.9514 22.3491C38.9514 22.1704 38.9873 22.0799 39.0634 22.0799C39.1804 22.0799 39.2852 22.2077 39.3749 22.4619C39.6413 23.0312 40.0648 23.5546 40.6434 24.0342C41.2227 24.4837 41.7654 24.7084 42.2708 24.7084C42.7891 24.7084 43.2607 24.4478 43.6835 23.9273C44.107 23.4067 44.6899 22.314 45.4322 20.649L46.5456 18.1281C47.2878 16.4632 47.9633 15.0882 48.5721 14.0026C49.1808 12.9171 49.959 11.9162 50.9094 11.0022C51.8591 10.0875 52.9136 9.63086 54.0715 9.63086C54.7241 9.63086 55.2625 9.81251 55.686 10.1765C56.1095 10.5405 56.3206 11.0115 56.3206 11.5902C56.3206 12.0217 56.2689 12.3484 56.1648 12.5703L52.7356 21.2111L54.2058 18.3163C55.0801 16.5206 55.8719 15.0502 56.5769 13.9071C57.2825 12.7641 58.0685 11.7798 58.9371 10.9562C59.8057 10.132 60.7146 9.71989 61.665 9.71989C62.0498 9.71989 62.3692 9.81323 62.6212 9.99846C62.8753 10.1844 63.0002 10.4336 63.0002 10.7459L62.8889 11.1681L60.4848 16.9363L59.3937 19.4973C59.1705 20.0329 58.9759 20.5154 58.8137 20.9455C58.6055 21.4653 58.4425 21.9105 58.3234 22.2809C58.0556 23.1131 57.9221 23.7219 57.9221 24.1082C57.9221 24.3308 58.0269 24.5232 58.2351 24.6869C58.4863 24.8355 58.7397 24.9102 58.991 24.9102C59.8086 24.9102 61.1072 24.45 62.8882 23.5288Z" fill="#00100F"/>
<path d="M74.0888 21.4797L74.1786 21.8142C73.5985 22.0663 73.0336 22.1926 72.4859 22.1926C71.8778 22.1926 71.3057 22.1029 70.7709 21.9255C69.524 24.2116 67.7796 25.3546 65.5392 25.3546C63.1789 25.3546 61.9973 24.4837 61.9973 22.7426C61.9973 22.1768 62.0878 21.619 62.2651 21.0683C62.4431 20.5176 62.7252 19.9453 63.1121 19.3487C63.8386 18.2473 64.751 17.4145 65.8493 16.8494C66.5765 16.4172 67.2147 16.2018 67.7653 16.2018C67.8988 16.2018 67.972 16.2542 67.9871 16.3583L67.1867 17.7648C66.7107 18.6573 66.2614 19.6553 65.8393 20.7559C65.4172 21.858 65.2047 22.8402 65.2047 23.7033C65.2047 24.0759 65.2894 24.3659 65.4588 24.5742C65.6304 24.7831 65.8493 24.8872 66.1171 24.8872C67.2757 24.8872 68.3058 23.6623 69.2117 21.2119C68.3654 20.2024 67.9433 19.1046 67.9433 17.9171C67.9433 17.1445 68.1027 16.54 68.4221 16.1006C68.7408 15.664 69.183 15.4443 69.748 15.4443C70.3395 15.4443 70.819 15.6935 71.1837 16.1896C71.5455 16.6879 71.7278 17.3822 71.7278 18.2725C71.7278 19.4901 71.4608 20.5815 70.926 21.5464C71.2835 21.7252 71.7436 21.8142 72.3078 21.8142C72.9604 21.8142 73.5547 21.7037 74.0888 21.4797ZM69.4364 20.6332C69.6432 19.5203 69.7487 18.6666 69.7487 18.0729C69.7487 17.3901 69.6877 16.8781 69.5692 16.5357C69.4795 16.1939 69.3237 16.0094 69.1026 15.9792C68.9239 15.9792 68.7638 16.1286 68.6224 16.4244C68.4831 16.7223 68.4113 17.0562 68.4113 17.4267C68.4113 17.9321 68.4996 18.4886 68.6791 19.096C68.8564 19.7063 69.1084 20.2182 69.4364 20.6332Z" fill="#00100F"/>
<path d="M77.8288 16.7763L81.3032 16.0848L81.0362 16.8868L82.7059 16.731C83.731 16.731 84.5214 16.9579 85.0763 17.4109C85.634 17.864 85.9118 18.5296 85.9118 19.4048C85.9118 21.3512 84.6061 23.0227 81.9931 24.4191C82.9141 24.8952 83.7138 25.1321 84.3986 25.1321C85.3476 25.1321 86.5069 24.5082 87.8723 23.2618L88.1393 23.5734C87.7546 23.8857 87.3777 24.1743 87.0145 24.4421C86.6512 24.7099 86.3124 24.9397 86.0023 25.1321C85.4223 25.4889 84.7468 25.667 83.9758 25.667C83.0268 25.667 82.0074 25.4286 80.9242 24.954C79.9896 25.3109 79.0334 25.4889 78.0528 25.4889L77.0277 28.4908L73.2863 29.603L74.8914 25.1321C74.1039 24.8794 73.7105 24.4493 73.7105 23.8405C73.7105 23.0988 74.409 22.7276 75.8045 22.7276L77.4053 18.0062C75.9969 18.9862 75.017 20.359 74.4671 22.1259L74.4226 21.39C74.4226 20.5736 74.7413 19.8234 75.3809 19.1391C76.0191 18.4563 76.7456 17.9207 77.5618 17.5344L77.8288 16.7763ZM75.6473 23.0837C75.3508 23.0837 75.1046 23.1799 74.9129 23.3723C74.7191 23.5662 74.6236 23.7959 74.6236 24.063C74.6236 24.3753 74.7643 24.6202 75.0471 24.7982L75.6473 23.0837ZM78.1633 25.1321C78.8159 25.1321 79.4548 24.9325 80.0786 24.5304L79.3212 24.1305L78.6314 23.7967L78.1633 25.1321ZM78.8539 23.1505L80.7239 23.8405C81.2738 23.0686 81.7282 22.2185 82.0929 21.2902C82.4568 20.3626 82.6377 19.5721 82.6377 18.9187C82.6377 18.3838 82.5193 17.976 82.2824 17.6945C82.0448 17.4117 81.7411 17.2709 81.37 17.2709H80.8797L78.8539 23.1505Z" fill="#00100F"/>
<path d="M96.7565 23.3507L96.979 23.6967C96.0436 24.2948 95.1011 24.7278 94.1514 24.997C93.6762 25.1169 93.1938 25.2059 92.7035 25.2662C92.2132 25.3258 91.6418 25.3553 90.9878 25.3553C88.5974 25.3553 87.4036 24.6287 87.4036 23.1733C87.4036 22.4302 87.6189 21.4882 88.0496 20.3445C89.1171 17.5982 90.9361 16.2247 93.5046 16.2247C94.9582 16.2247 95.6861 16.7589 95.6861 17.828C95.6861 18.6745 95.2719 19.4908 94.44 20.2784C93.6087 21.0653 92.4436 21.7625 90.9454 22.3714C90.8844 22.6384 90.8464 22.8021 90.8335 22.8617C90.8335 23.0247 90.8335 23.1432 90.8335 23.2171C90.8335 23.7226 90.9885 24.1239 91.3008 24.4197C91.6109 24.6876 92.028 24.8211 92.547 24.8211C93.9403 24.8204 95.3444 24.3307 96.7565 23.3507ZM90.9878 21.8587C91.6418 21.3418 92.3768 20.5506 93.193 19.4858C94.0092 18.4217 94.4177 17.5781 94.4177 16.9571C94.4177 16.6462 94.2389 16.4918 93.8822 16.4918C93.3488 16.4918 92.7946 17.1315 92.2239 18.4095C91.654 19.689 91.2419 20.8377 90.9878 21.8587Z" fill="#00100F"/>
<path d="M108.311 21.4797L108.401 21.8142C107.821 22.0663 107.257 22.1926 106.709 22.1926C106.099 22.1926 105.529 22.1029 104.994 21.9255C103.748 24.2116 102.003 25.3546 99.7621 25.3546C97.4011 25.3546 96.2209 24.4837 96.2209 22.7426C96.2209 22.1768 96.3107 21.619 96.4887 21.0683C96.666 20.5176 96.9496 19.9453 97.3351 19.3487C98.0615 18.2473 98.9739 17.4145 100.074 16.8494C100.801 16.4172 101.438 16.2018 101.987 16.2018C102.122 16.2018 102.194 16.2542 102.211 16.3583L101.409 17.7648C100.934 18.6573 100.485 19.6553 100.061 20.7559C99.6394 21.858 99.4262 22.8402 99.4262 23.7033C99.4262 24.0759 99.5116 24.3659 99.6824 24.5742C99.8533 24.7831 100.073 24.8872 100.34 24.8872C101.497 24.8872 102.529 23.6623 103.435 21.2119C102.588 20.2024 102.165 19.1046 102.165 17.9171C102.165 17.1445 102.325 16.54 102.644 16.1006C102.962 15.664 103.405 15.4443 103.969 15.4443C104.562 15.4443 105.041 15.6935 105.404 16.1896C105.768 16.6879 105.951 17.3822 105.951 18.2725C105.951 19.4901 105.684 20.5815 105.15 21.5464C105.506 21.7252 105.964 21.8142 106.531 21.8142C107.184 21.8142 107.777 21.7037 108.311 21.4797ZM103.658 20.6332C103.865 19.5203 103.97 18.6666 103.97 18.0729C103.97 17.3901 103.911 16.8781 103.791 16.5357C103.703 16.1939 103.547 16.0094 103.325 15.9792C103.145 15.9792 102.986 16.1286 102.846 16.4244C102.705 16.7223 102.634 17.0562 102.634 17.4267C102.634 17.9321 102.723 18.4886 102.901 19.096C103.079 19.7063 103.331 20.2182 103.658 20.6332Z" fill="#00100F"/>
<path d="M114.256 22.0146L114.836 20.5226C114.45 20.4329 114.123 20.3876 113.857 20.3876C113.53 20.3876 113.247 20.4695 113.01 20.6325C112.684 20.9003 112.343 21.4725 111.985 22.3477C111.689 23.1641 111.378 23.8246 111.051 24.3294C110.857 24.656 110.664 24.9009 110.472 25.0646C110.249 25.2132 109.936 25.2871 109.536 25.2871C108.185 25.2871 107.51 24.7522 107.51 23.6825C107.51 23.2962 107.6 22.8884 107.776 22.4569L109.803 16.9973L113.455 16.3512L110.404 24.4184V24.6417L110.582 24.5972L110.671 24.4859C110.908 24.0551 111.2 23.3163 111.552 22.2702C111.9 21.2234 112.298 20.5363 112.743 20.2096C112.994 20.0315 113.343 19.9418 113.788 19.9418C113.907 19.9418 114.071 19.9569 114.279 19.9863C114.488 20.0165 114.725 20.0531 114.991 20.0976L116.215 17.0052L119.868 16.3497L117.351 22.8029C117.172 23.2955 117.084 23.6243 117.084 23.7887C117.084 24.3272 117.402 24.5957 118.042 24.5957C118.295 24.5957 118.469 24.5842 118.565 24.5627C118.663 24.5404 118.807 24.488 118.999 24.4069C119.192 24.3258 119.312 24.2769 119.357 24.2611C119.563 24.1578 119.778 24.0386 120 23.905L121.025 23.3048L121.203 23.5719C119.719 24.7149 118.22 25.2871 116.705 25.2871C115.844 25.2871 115.166 25.1055 114.668 24.7415C114.171 24.3782 113.92 23.8849 113.92 23.261C113.921 22.9049 114.034 22.4899 114.256 22.0146Z" fill="#00100F"/>
</g>
<defs>
<clipPath id="clip0_85_658">
<rect width="160" height="89" fill="white"/>
</clipPath>
</defs>
</svg>
