<svg width="160" height="56" viewBox="0 0 160 56" fill="none" xmlns="http://www.w3.org/2000/svg">
<path d="M41.1421 11.9546C41.1677 11.897 41.194 11.8393 41.2204 11.7784C42.9788 7.4748 41.0444 2.50236 36.9029 0.676952C32.7573 -1.15407 27.9702 0.857989 26.2134 5.1608C26.1894 5.22168 26.1662 5.28255 26.147 5.34022C28.8669 5.33381 31.6309 5.88406 34.2941 7.06069C36.9549 8.23491 39.2565 9.91776 41.1421 11.9546Z" fill="white"/>
<path d="M14.8702 44.9468C15.4078 46.3877 16.1206 48.2436 16.1206 48.2436C16.4822 49.1695 17.5102 49.626 18.4038 49.2528C18.4038 49.2528 20.1774 48.4918 21.5494 47.8959C20.3854 47.6148 19.2294 47.2255 18.0878 46.7241C16.9494 46.2211 15.8758 45.626 14.8702 44.9468Z" fill="white"/>
<path d="M16.7453 7.7143C15.9069 6.99663 14.8782 6.47601 13.667 6.23492C5.67505 4.74992 -1.61853 14.6339 0.314256 26.3417C2.19344 23.137 4.18541 21.9123 6.10859 21.5126C6.36299 20.489 6.69262 19.4733 7.10302 18.4753C9.079 13.6327 12.5638 9.93139 16.7453 7.7143Z" fill="white"/>
<path d="M49.193 21.9023C48.189 21.1678 47.1106 20.7609 46.0338 20.6304C47.4002 25.2976 47.2578 30.4735 45.281 35.3098C44.8722 36.315 44.3978 37.2625 43.8658 38.166C44.9274 39.8809 45.4618 42.2181 44.5467 45.8449C53.9954 39.1584 55.7762 26.8451 49.193 21.9023Z" fill="white"/>
<path d="M6.37488 33.2493C3.9765 33.9581 2.26775 36.8552 4.10453 40.1C5.63492 42.7952 8.48605 43.7051 8.83965 48.9443C10.6748 47.1173 11.8708 45.066 12.466 43.0483C9.57726 40.4011 7.49327 36.989 6.37488 33.2493Z" fill="white"/>
<path d="M24.5415 48.3748C23.5535 50.221 22.9607 52.5374 22.9727 55.1798C26.8455 51.8061 29.4591 53.3023 32.3879 52.571C35.907 51.6916 36.7278 48.4004 35.551 46.1168C32.1879 47.8822 28.3791 48.6919 24.5415 48.3748Z" fill="white"/>
<path d="M20.6239 29.2268C22.0319 29.214 23.4639 29.4895 24.8439 30.0967C26.2447 30.7062 27.4527 31.5937 28.4358 32.675C28.423 31.2092 28.6895 29.721 29.2687 28.2897C29.859 26.8319 30.7182 25.5784 31.755 24.5547C30.3462 24.5716 28.9119 24.2952 27.5351 23.6905C26.1343 23.0786 24.9239 22.1895 23.9423 21.1066C23.9559 22.5707 23.6903 24.0622 23.1087 25.4951C22.5191 26.9496 21.6591 28.2072 20.6239 29.2268Z" fill="white"/>
<path d="M41.4729 17.7863C40.8849 19.2416 40.0264 20.4992 38.9865 21.5196C40.3976 21.5012 41.8304 21.7839 43.208 22.383C43.516 22.52 43.812 22.6626 44.0952 22.8276C43.656 20.7274 42.8728 18.7218 41.7904 16.8932C41.6984 17.1928 41.5945 17.4923 41.4729 17.7863Z" fill="white"/>
<path d="M34.9505 42.7693C33.5521 42.1574 32.3417 41.2699 31.3617 40.1886C31.3737 41.6536 31.1089 43.141 30.5305 44.5723C30.4001 44.8919 30.2593 45.1995 30.1057 45.4974C32.1241 45.0369 34.0537 44.2279 35.8121 43.0993C35.5257 43.0024 35.2361 42.8951 34.9505 42.7693Z" fill="white"/>
<path d="M17.4273 11.0151C18.8241 11.6262 20.0337 12.5169 21.0193 13.5974C21.0009 12.1316 21.2697 10.6427 21.8481 9.21052C21.9793 8.89333 22.1209 8.58735 22.2745 8.28699C20.2601 8.74755 18.3281 9.55733 16.5681 10.6835C16.8545 10.7812 17.1433 10.8893 17.4273 11.0151Z" fill="white"/>
<path d="M10.9067 35.9981C11.4963 34.5396 12.3523 33.2837 13.3939 32.2624C11.9827 32.2808 10.5515 32.0021 9.17311 31.4022C8.86512 31.2676 8.5699 31.1218 8.2843 30.9592C8.7267 33.0578 9.5067 35.061 10.5859 36.8904C10.6787 36.5901 10.7875 36.2913 10.9067 35.9981Z" fill="white"/>
<path d="M28.0667 11.5838C27.2003 13.7096 28.1659 16.1709 30.2146 17.072C32.2682 17.9667 34.6362 16.9599 35.5018 14.8341C36.3634 12.706 35.3922 10.2422 33.3466 9.34428C31.2963 8.44719 28.9243 9.4532 28.0667 11.5838Z" fill="white"/>
<path d="M35.6384 31.0714C34.7816 33.2043 35.7487 35.6673 37.7927 36.5628C39.8455 37.4567 42.2167 36.4571 43.0783 34.3217C43.9423 32.1927 42.9719 29.7313 40.9255 28.8366C38.8751 27.9396 36.5047 28.9448 35.6384 31.0714Z" fill="white"/>
<path d="M16.8813 38.9477C16.0173 41.0783 16.9877 43.5429 19.0349 44.4376C21.0813 45.3339 23.4541 44.327 24.3181 42.1997C25.1805 40.0707 24.2133 37.6093 22.1613 36.7114C20.1141 35.8175 17.7453 36.8219 16.8813 38.9477Z" fill="white"/>
<path d="M16.74 22.7115C17.6015 20.5753 16.636 18.1147 14.5872 17.2192C12.5352 16.3213 10.1648 17.3282 9.30163 19.4603C8.43924 21.5885 9.40563 24.0491 11.456 24.9478C13.5072 25.8449 15.8776 24.838 16.74 22.7115Z" fill="white"/>
<path d="M23.8011 9.718C21.9476 14.2923 24.0204 19.5756 28.4235 21.4963C29.4939 21.9648 30.6219 22.2059 31.7739 22.2059C35.2683 22.2059 38.405 20.0433 39.761 16.6961C39.9738 16.1698 40.1386 15.626 40.2514 15.0741C39.5754 14.1978 38.8274 13.3985 38.013 12.664C38.0962 13.6964 37.9387 14.7425 37.5419 15.7269C36.5619 18.141 34.3019 19.7029 31.7803 19.7029C30.9443 19.7029 30.1315 19.5307 29.3555 19.1935C26.1795 17.8054 24.6843 13.988 26.0195 10.6888C26.4235 9.69077 27.0443 8.83935 27.8267 8.17375C26.7555 8.07362 25.6771 8.07362 24.6051 8.16974C24.2907 8.65192 24.0195 9.17094 23.8011 9.718Z" fill="white"/>
<path d="M26.1784 45.6838C26.708 45.6838 27.244 45.663 27.7712 45.6117C28.0824 45.1343 28.3544 44.6169 28.58 44.0594C30.4312 39.4883 28.3568 34.2043 23.9576 32.2852C22.8848 31.8142 21.7568 31.5747 20.5992 31.5747C17.1089 31.5747 13.9761 33.7381 12.6201 37.0878C12.4105 37.6044 12.2465 38.1499 12.1273 38.7089C12.8057 39.5812 13.5553 40.3838 14.3689 41.1159C14.2841 40.085 14.4377 39.0389 14.8377 38.0546C15.8185 35.6356 18.0808 34.0769 20.5992 34.0769C21.4352 34.0769 22.2496 34.2475 23.0224 34.5831C24.5624 35.2616 25.756 36.5135 26.3856 38.1226C27.0176 39.727 27.0088 41.4931 26.3616 43.0911C25.956 44.0891 25.336 44.9445 24.5536 45.6093C25.092 45.6606 25.636 45.6838 26.1784 45.6838Z" fill="white"/>
<path d="M44.2057 28.5913C44.3041 27.4867 44.3057 26.3654 44.2113 25.2408C43.7409 24.9164 43.2393 24.6369 42.7169 24.4078C41.6441 23.9368 40.5161 23.6965 39.3625 23.6965C35.8682 23.6965 32.7354 25.8616 31.3786 29.2112C29.5282 33.7784 31.6018 39.064 36.0017 40.9887C36.5057 41.2058 37.0322 41.3812 37.5673 41.5005C38.4089 40.794 39.1833 40.0147 39.8857 39.1713C38.8889 39.2586 37.8737 39.0912 36.9329 38.6819C33.7586 37.293 32.261 33.4788 33.597 30.178C34.577 27.7655 36.8386 26.2028 39.3625 26.2028C40.1961 26.2028 41.0089 26.371 41.7841 26.713C42.7457 27.1319 43.5697 27.7799 44.2057 28.5913Z" fill="white"/>
<path d="M8.17315 25.1898C8.07715 26.2975 8.07554 27.4213 8.17154 28.5379C8.64354 28.863 9.14433 29.1434 9.66352 29.3725C10.7347 29.8427 11.8635 30.0837 13.0179 30.0837C16.5115 30.0837 19.6434 27.9187 20.9994 24.5706C22.8498 20.0035 20.7746 14.7163 16.3795 12.7916C15.8715 12.5697 15.3443 12.3975 14.8107 12.2814C13.9723 12.9862 13.1987 13.7664 12.4971 14.6122C13.5003 14.5233 14.5083 14.6875 15.4451 15.096C18.6194 16.4889 20.117 20.3007 18.7842 23.6039C17.8051 26.018 15.5411 27.5791 13.0211 27.5791C12.1875 27.5791 11.3715 27.4069 10.5971 27.0641C9.63871 26.65 8.81395 26.0036 8.17315 25.1898Z" fill="white"/>
<path d="M70.8491 18.6361C70.8491 20.9637 72.4315 23.2913 75.8923 23.9193C75.9915 24.3999 75.8427 24.9165 75.3979 25.3226C70.5027 25.5813 67.7835 28.943 67.7835 31.9354C67.7835 34.4104 69.6131 36.6644 73.6675 36.6644C76.5842 36.6644 79.1554 35.4453 80.5402 33.3387C81.4802 33.3387 82.0234 33.7088 82.0234 34.3367C82.0234 36.9231 76.4851 39.9155 70.1563 39.9155C63.6788 39.9155 60.8108 36.4425 60.8108 32.6002C60.8108 29.0159 63.9755 25.2481 69.4635 23.9922C66.7443 22.6618 65.5075 20.6305 65.5075 18.524C65.5075 14.9036 69.3643 11.1719 76.1386 11.1719C81.8746 11.1719 84.1978 13.389 84.1978 15.7534C84.1978 17.8223 82.6162 19.6325 80.1442 19.6325C79.353 19.6325 77.8203 19.1896 77.2763 18.1547C78.8091 17.8223 79.6986 16.5664 79.6986 15.4202C79.6986 14.2748 78.809 13.2408 76.7819 13.2408C72.9755 13.2424 70.8491 15.9392 70.8491 18.6361Z" fill="white"/>
<path d="M84.446 24.3261C84.1988 24.3261 83.902 24.4735 83.4572 24.7691C82.8148 24.4735 82.4684 23.3281 83.4572 22.737C85.1388 21.7398 86.918 20.9636 88.9947 20.9636C90.7755 20.9636 91.8132 21.5916 91.3684 22.9957C90.0844 27.5396 89.49 33.0439 91.5667 36.074C95.3243 33.8569 97.7963 29.9778 97.7963 26.5056C97.7963 24.0306 96.8075 21.8503 94.7307 21.1487C94.8299 19.228 96.4123 18.2668 98.0451 18.3036C99.9731 18.3405 102.05 19.7077 102.05 22.4046C102.05 30.8652 93.9403 39.9162 88.5996 39.9162C83.3588 39.9162 83.2108 29.1656 84.99 24.8796C85.0892 24.584 84.8916 24.3261 84.446 24.3261Z" fill="white"/>
<path d="M108.278 33.9678C108.774 35.9622 110.603 36.7007 112.877 36.7007C116.438 36.7007 120.986 34.8168 123.113 32.7119C124.398 32.5276 124.893 33.303 124.349 33.9678C120.938 37.6987 115.202 39.9158 110.405 39.9158C107.142 39.9158 104.274 38.9178 102.889 36.7007C102.692 36.7752 102.494 36.8497 102.295 36.8849C100.367 37.255 98.5873 36.1841 98.9345 34.7423C100.071 34.8537 101.059 34.6687 102.098 34.3362C102.048 34.0038 101.998 33.6714 101.998 33.3022C101.998 28.4996 106.251 20.8151 114.411 20.8151C118.91 20.8151 120.047 22.699 120.047 24.3618C120.047 27.5024 117.822 30.015 108.278 33.9678ZM108.132 32.3787C112.927 30.1255 116.191 27.5392 116.191 25.1379C116.191 24.2881 115.598 23.697 114.757 23.697C109.862 23.697 108.278 29.7923 108.132 32.3787Z" fill="white"/>
<path d="M123.755 22.7375C125.437 21.7403 127.216 20.9641 129.293 20.9641C131.074 20.9641 132.111 21.5921 131.666 22.9962L131.173 24.6582C133.249 22.4419 136.413 20.9641 139.282 20.9641C141.902 20.9641 143.782 22.5164 142.645 26.3947L140.221 34.8914C139.925 35.9631 140.569 36.406 141.557 36.406C143.387 36.406 145.512 35.4833 146.748 34.559C147.293 34.7432 147.589 35.0764 147.589 35.4457C147.589 35.7036 147.44 35.9991 147.145 36.2586C144.82 38.2162 141.507 39.9159 138.194 39.9159C135.722 39.9159 133.101 38.9924 134.338 34.6695L136.415 27.3174C136.859 25.7651 136.166 25.1372 135.079 25.1372C133.745 25.1372 131.766 26.0607 130.679 27.0579L127.662 37.5874C127.169 39.2863 125.289 39.9151 123.51 39.9151C122.619 39.9151 121.78 39.7308 121.186 39.4345L125.241 25.2477C125.438 24.6566 125.19 24.3242 124.746 24.3242C124.498 24.3242 124.202 24.4724 123.757 24.7679C123.113 24.474 122.766 23.3286 123.755 22.7375Z" fill="white"/>
<path d="M155.401 23.2921L152.484 33.6735C151.89 35.7416 152.681 36.4064 153.967 36.4064C155.797 36.4064 157.923 35.4837 159.159 34.5594C159.703 34.7436 160 35.0768 160 35.4453C160 35.704 159.851 35.9995 159.554 36.259C157.231 38.2166 153.473 39.9163 150.161 39.9163C147.144 39.9163 145.166 38.5122 146.303 34.4489L149.467 23.2913H146.995C146.748 22.1091 147.539 21.1487 149.072 21.1487H150.061L150.951 18.1195C151.445 16.4198 153.325 15.7919 155.104 15.7919C155.994 15.7919 156.835 15.9761 157.427 16.2717L156.043 21.1479H159.653C159.902 22.3302 159.109 23.2906 157.576 23.2906H155.401V23.2921Z" fill="white"/>
</svg>
