<svg width="160" height="61" viewBox="0 0 160 61" fill="none" xmlns="http://www.w3.org/2000/svg">
<g clip-path="url(#clip0_85_602)">
<path fill-rule="evenodd" clip-rule="evenodd" d="M78.7708 51.7437L79.3455 51.4001C79.7498 52.1341 80.2025 52.5014 80.7272 52.5014C80.9511 52.5014 81.1705 52.4585 81.3625 52.3497C81.555 52.2403 81.7118 52.1127 81.8053 51.9257C81.9164 51.7591 81.9681 51.5639 81.9681 51.3742C81.9681 51.1532 81.8883 50.9322 81.7332 50.7144C81.5258 50.4191 81.1441 50.0535 80.5919 49.6483C80.0265 49.221 79.6827 48.9208 79.5419 48.7245C79.3087 48.4177 79.1992 48.0669 79.1992 47.7067C79.1992 47.4214 79.2608 47.158 79.4038 46.9122C79.5413 46.6741 79.7344 46.4943 79.9869 46.3541C80.2454 46.2194 80.522 46.1396 80.818 46.1396C81.1342 46.1396 81.4356 46.2194 81.7024 46.3805C81.9747 46.5273 82.27 46.8237 82.5764 47.2388L82.0264 47.6528C81.7728 47.3191 81.5704 47.0975 81.3883 46.9908C81.2002 46.8874 81.0176 46.8358 80.8037 46.8358C80.5336 46.8358 80.3141 46.9116 80.1348 47.0727C79.9698 47.2383 79.878 47.4417 79.878 47.6776C79.878 47.8288 79.9154 47.9619 79.9698 48.1043C80.0292 48.2291 80.1458 48.3792 80.3009 48.5463C80.3966 48.6382 80.6881 48.857 81.1705 49.2144C81.747 49.6477 82.1567 50.0199 82.358 50.351C82.5764 50.6853 82.6859 51.0262 82.6859 51.3561C82.6859 51.8394 82.5027 52.2589 82.1369 52.6273C81.7734 52.9716 81.324 53.1585 80.7971 53.1585C80.3933 53.1585 80.0265 53.0496 79.6953 52.8335C79.3653 52.613 79.0502 52.2545 78.7708 51.7437ZM84.0961 46.3041H85.4261C86.1873 46.3041 86.7077 46.3431 86.9717 46.4118C87.3556 46.5086 87.668 46.6911 87.9073 46.9925C88.1427 47.2795 88.273 47.6545 88.273 48.0944C88.273 48.5343 88.1482 48.8944 87.9188 49.1946C87.6862 49.4811 87.3561 49.6664 86.9337 49.7753C86.6384 49.8517 86.0729 49.8847 85.2479 49.8847H84.7672V52.9941H84.0961V46.3041ZM84.7666 46.9633V49.2243L85.8991 49.2524C86.3523 49.2524 86.6939 49.2106 86.898 49.1143C87.1163 49.044 87.2846 48.8944 87.3996 48.7163C87.52 48.5343 87.5761 48.327 87.5761 48.0944C87.5761 47.8728 87.5195 47.6655 87.3996 47.4796C87.2846 47.2965 87.1196 47.1657 86.9134 47.0777C86.7225 47.0057 86.398 46.9633 85.9393 46.9633H84.7666ZM92.3295 46.3041L95.4509 52.9941H94.7276L93.6941 50.7958H90.7894L89.7614 52.9941H89.0073L92.1628 46.3041H92.3295ZM92.2475 47.7177L91.1018 50.1464H93.4004L92.2475 47.7177Z" fill="white"/>
<g opacity="0.25">
<path opacity="0.25" fill-rule="evenodd" clip-rule="evenodd" d="M18.3214 27.9745C23.7508 32.1456 29.1542 33.6148 31.6068 34.0965C44.0287 36.4944 18.7251 -1.16712 15.1857 4.14224C10.0022 11.9149 10.219 21.7551 18.3214 27.9745Z" fill="white"/>
<path opacity="0.25" d="M32.6556 34.263V34.1486C34.1803 34.1486 34.9504 33.2782 34.9531 31.5638C34.9564 28.2481 31.9263 21.6912 27.2395 14.8477C22.6721 8.17197 18.2152 3.68573 16.1526 3.68573V3.56531C18.5793 3.56531 23.5213 9.19469 27.3418 14.7751C30.9071 19.9888 35.0719 27.5048 35.0719 31.5638C35.0714 33.3535 34.2579 34.263 32.6556 34.263Z" fill="white"/>
</g>
<g opacity="0.25">
<path opacity="0.25" fill-rule="evenodd" clip-rule="evenodd" d="M28.6934 14.1652C26.9828 20.3654 27.6104 25.5758 28.062 27.8752C30.3661 39.5156 54.1729 4.22721 48.3069 3.02524C39.722 1.27341 31.2489 4.92937 28.6934 14.1652Z" fill="white"/>
<path opacity="0.25" d="M30.1822 30.2847C29.0492 30.2847 28.3165 29.4759 28.008 27.8906C27.6097 25.8787 26.8749 20.5127 28.6394 14.1466C29.6531 10.4631 31.702 7.45156 34.5577 5.4325C37.2385 3.54046 40.5547 2.54248 44.1628 2.54248C45.5346 2.54248 46.9289 2.68874 48.3172 2.97081C49.0647 3.12532 49.3876 3.80604 49.2649 4.99152C48.9679 7.94092 45.7832 14.1108 41.5167 19.9887C36.853 26.439 32.6128 30.2847 30.1822 30.2847ZM44.1628 2.65905C40.5811 2.65905 37.2831 3.64988 34.6254 5.52927C31.7927 7.53458 29.7604 10.5203 28.7478 14.1823C26.9981 20.5204 27.7297 25.8606 28.1213 27.8648C28.4227 29.3906 29.1141 30.1648 30.1817 30.1648C31.4154 30.1648 33.1832 29.1157 35.2914 27.1231C37.1912 25.3256 39.3116 22.8359 41.427 19.9227C45.6765 14.0575 48.8491 7.91013 49.1494 4.97942C49.2616 3.86487 48.9756 3.22815 48.2936 3.09288C46.9102 2.80201 45.5231 2.65905 44.1628 2.65905Z" fill="white"/>
</g>
<g opacity="0.25">
<path opacity="0.25" fill-rule="evenodd" clip-rule="evenodd" d="M21.2075 19.4396C23.4879 24.9293 26.9091 28.367 28.5465 29.7861C36.8481 36.97 34.1293 -2.29165 29.168 0.169485C21.9154 3.76332 17.8182 11.2545 21.2075 19.4396Z" fill="white"/>
<path opacity="0.25" d="M30.4128 30.7241V30.6047C31.5337 30.6047 32.4055 29.4132 33.0034 27.067C33.5265 25.0051 33.8015 22.1222 33.8015 18.723C33.8015 10.1195 31.9743 0.117118 29.6174 0.117118V0C32.0843 0 33.9203 9.88633 33.9203 18.723C33.9203 22.1288 33.6436 25.0243 33.1173 27.1011C32.5067 29.5045 31.5975 30.7241 30.4128 30.7241Z" fill="white"/>
</g>
<g opacity="0.25">
<path opacity="0.25" fill-rule="evenodd" clip-rule="evenodd" d="M44.8562 18.1797C38.5424 20.8542 34.6009 24.8318 32.9871 26.7282C24.7713 36.3567 70.0227 32.8992 67.145 27.2055C62.9329 18.8654 54.271 14.2054 44.8562 18.1797Z" fill="white"/>
<path opacity="0.25" d="M45.2877 32.8273C37.8348 32.8273 33.0281 31.6726 32.0969 29.6557C31.7053 28.8013 31.9913 27.805 32.9379 26.686C34.3542 25.0293 38.3496 20.8724 44.8361 18.1254C47.1033 17.1686 49.4014 16.6842 51.6603 16.6842C58.0737 16.6842 63.8814 20.6057 67.197 27.177C67.3955 27.574 67.3807 27.9826 67.1337 28.3757C65.5199 30.9908 54.3269 32.8273 45.2877 32.8273ZM51.6603 16.7958C49.419 16.7958 47.1369 17.2824 44.8779 18.2342C38.4244 20.967 34.4433 25.1134 33.0287 26.7663C32.1118 27.844 31.8346 28.7996 32.2025 29.603C33.1128 31.5775 37.8794 32.697 45.2882 32.697C49.8925 32.697 54.9126 32.2516 59.061 31.451C63.4777 30.6048 66.3147 29.4902 67.0386 28.3108C67.2564 27.9556 67.2762 27.5933 67.0919 27.2304C63.7967 20.7009 58.028 16.7958 51.6603 16.7958Z" fill="white"/>
</g>
<g opacity="0.25">
<path opacity="0.25" fill-rule="evenodd" clip-rule="evenodd" d="M45.1111 21.2781C38.7516 22.2282 34.242 24.9291 32.3323 26.2812C22.6265 33.1219 64.5595 40.4965 63.2752 34.6488C61.3848 26.0937 54.5936 19.843 45.1111 21.2781Z" fill="white"/>
<path opacity="0.25" d="M57.4038 36.8269C48.3525 36.8269 32.2295 33.1572 30.9012 28.9711C30.6004 28.0155 31.0684 27.1011 32.2966 26.2367C33.9698 25.0518 38.5686 22.2025 45.0997 21.2116C46.0023 21.0824 46.901 21.0093 47.7706 21.0093C55.4006 21.0093 61.4988 26.3571 63.3287 34.6374C63.4101 34.9931 63.3369 35.3093 63.118 35.5836C62.2891 36.6069 59.5533 36.8269 57.4038 36.8269ZM47.7711 21.128C46.9065 21.128 46.0094 21.1968 45.1189 21.3337C38.6121 22.3097 34.0314 25.1541 32.3643 26.3269C31.1839 27.166 30.7329 28.0358 31.0156 28.9343C31.5976 30.7713 35.3581 32.7481 41.3276 34.3553C46.6249 35.7799 52.9359 36.7136 57.4043 36.7136C60.4476 36.7136 62.392 36.2985 63.0234 35.5072C63.2187 35.2697 63.283 34.9799 63.2176 34.6621C61.397 26.4391 55.3384 21.128 47.7711 21.128Z" fill="white"/>
</g>
<g opacity="0.25">
<path opacity="0.25" fill-rule="evenodd" clip-rule="evenodd" d="M37.2448 16.5923C33.1597 20.9048 31.4046 25.4311 30.7842 27.5052C27.6001 38.0095 62.3509 19.5444 58.0909 16.0155C51.8486 10.8452 43.3375 10.1618 37.2448 16.5923Z" fill="white"/>
<path opacity="0.25" d="M33.2772 30.7571C32.1024 30.7571 31.2872 30.4646 30.861 29.8917C30.4523 29.3413 30.405 28.5324 30.7235 27.4861C31.2757 25.6743 33 20.9846 37.2006 16.5484C40.086 13.5044 43.6689 11.8939 47.5538 11.8939C51.2021 11.8939 54.9522 13.3428 58.1303 15.9639C58.5191 16.2889 58.6149 16.7381 58.4102 17.305C57.7238 19.1971 53.5639 22.4417 47.8095 25.5643C43.1822 28.0733 36.9327 30.7571 33.2772 30.7571ZM47.5538 12.0077C43.7063 12.0077 40.1504 13.6056 37.2908 16.6243C33.1073 21.049 31.3857 25.7172 30.8368 27.5207C30.5304 28.5324 30.57 29.3028 30.9528 29.8262C31.3604 30.3618 32.1387 30.6318 33.2778 30.6318C35.6605 30.6318 40.7109 29.2742 47.7479 25.4632C53.4798 22.3526 57.6248 19.136 58.2931 17.2654C58.4806 16.7469 58.402 16.3422 58.0511 16.0574C54.8994 13.4473 51.1724 12.0077 47.5538 12.0077Z" fill="white"/>
</g>
<g opacity="0.25">
<path opacity="0.25" fill-rule="evenodd" clip-rule="evenodd" d="M44.7252 39.9132C42.8689 33.304 39.424 28.8986 37.7426 27.0527C29.2397 17.686 26.9384 63.0026 32.959 60.8741C41.7589 57.7498 47.4825 49.7462 44.7252 39.9132Z" fill="white"/>
<path opacity="0.25" d="M32.5518 61C31.565 61 30.7917 59.7348 30.256 57.2138C29.7736 54.9819 29.5222 51.9104 29.5222 48.3419C29.5222 43.0732 30.0909 37.4296 31.0469 33.265C32.4698 27.0236 34.2618 25.7172 35.5115 25.7172V25.837C31.8879 25.837 29.6388 37.5164 29.6388 48.3425C29.6388 55.9689 30.7856 60.8824 32.5512 60.8873V61H32.5518Z" fill="white"/>
</g>
<g opacity="0.25">
<path opacity="0.25" fill-rule="evenodd" clip-rule="evenodd" d="M41.622 39.7739C41.473 33.3423 39.3647 28.5333 38.2663 26.4636C32.7099 15.9736 20.0923 56.6296 26.0551 56.0858C34.7846 55.2857 41.8437 49.3397 41.622 39.7739Z" fill="white"/>
<path opacity="0.25" d="M25.9366 56.1547C24.9537 56.1547 24.4307 54.9818 24.4307 52.7819C24.4307 48.8928 26.0868 41.8706 28.4514 35.7095C29.7313 32.3967 33.0287 24.6746 36.1243 24.6746V24.7917C34.0314 24.7917 31.2032 28.8908 28.5614 35.7601C26.2029 41.897 24.5506 48.8928 24.5506 52.7819C24.5506 54.2637 24.7904 56.0288 25.9366 56.0288V56.1547Z" fill="white"/>
</g>
<g opacity="0.25">
<path opacity="0.25" fill-rule="evenodd" clip-rule="evenodd" d="M47.2674 32.5648C43.5041 27.9636 39.2287 25.657 37.259 24.7679C27.2359 20.2866 41.1598 57.0893 45.2042 53.3019C51.1148 47.766 52.8721 39.4187 47.2674 32.5648Z" fill="white"/>
<path opacity="0.25" d="M44.5412 53.6364C43.2855 53.6364 40.8505 51.0427 37.7781 43.7693C35.2611 37.8127 33.6353 31.6401 33.6353 28.0457C33.6353 26.8784 33.8014 25.9755 34.1259 25.357C34.4828 24.6746 35.0285 24.3298 35.7551 24.3298V24.4475C35.0791 24.4475 34.5654 24.7791 34.2359 25.4097C33.918 26.0168 33.759 26.9004 33.759 28.0452C33.759 35.8899 41.2152 53.5204 44.5418 53.5215V53.6364H44.5412Z" fill="white"/>
</g>
<g opacity="0.25">
<path opacity="0.25" fill-rule="evenodd" clip-rule="evenodd" d="M24.0261 41.1887C29.6216 37.238 32.617 32.5098 33.7957 30.3044C39.7548 19.1446 -3.70519 32.2002 0.325968 37.1583C6.21952 44.3998 15.685 47.0979 24.0261 41.1887Z" fill="white"/>
<path opacity="0.25" d="M14.3712 44.4699C9.18445 44.4699 4.04663 41.8235 0.274535 37.1965C-0.0461314 36.7951 -0.0862835 36.3271 0.156829 35.8202C1.97192 32.0015 19.8352 25.8596 29.1147 25.8596C31.8313 25.8596 33.5227 26.3825 34.1458 27.4272C34.587 28.158 34.483 29.1406 33.8461 30.331C32.8208 32.256 29.7995 37.1794 24.0561 41.2351C21.0227 43.3812 17.7643 44.4699 14.3712 44.4699ZM29.1147 25.9751C19.8654 25.9751 2.06873 32.0751 0.262985 35.8757C0.0424231 36.3315 0.0748748 36.7544 0.37079 37.1233C4.11758 41.7162 9.21745 44.361 14.3718 44.361C17.744 44.361 20.9754 43.274 23.9912 41.1422C29.7126 37.0942 32.7174 32.1972 33.7366 30.276C34.3631 29.1197 34.461 28.1805 34.0452 27.4916C33.4424 26.4859 31.784 25.9751 29.1147 25.9751Z" fill="white"/>
</g>
<g opacity="0.25">
<path opacity="0.25" fill-rule="evenodd" clip-rule="evenodd" d="M23.1173 38.23C29.1154 35.9283 32.9452 32.3323 34.5276 30.6008C42.5355 21.8389 0.000705719 23.6182 2.51049 29.0502C6.19018 36.9983 14.1645 41.6473 23.1173 38.23Z" fill="white"/>
<path opacity="0.25" d="M17.2026 39.4177C14.0862 39.4177 11.0731 38.4274 8.47258 36.5486C5.9683 34.7577 3.88645 32.1685 2.45692 29.0739C2.28476 28.6973 2.31116 28.3294 2.54218 27.9715C3.36557 26.6766 6.59259 25.8485 9.15572 25.3904C12.4878 24.7867 16.7406 24.4425 20.8026 24.4425C29.0277 24.4425 34.4999 25.7242 35.4432 27.8527C35.8052 28.6786 35.5087 29.6122 34.5681 30.6349C33.1876 32.1454 29.3005 35.9251 23.1336 38.2812C21.1551 39.0334 19.1569 39.4177 17.2026 39.4177ZM20.8026 24.5651C12.9674 24.5651 4.02725 25.8606 2.63953 28.0352C2.43437 28.3591 2.40742 28.6896 2.56473 29.0261C5.53983 35.4676 11.0115 39.3039 17.2026 39.3039C19.1398 39.3039 21.1243 38.9196 23.0929 38.1762C29.2384 35.82 33.1067 32.0635 34.4829 30.5613C35.3871 29.5693 35.6704 28.6786 35.3338 27.9044C34.8619 26.8212 33.1205 25.942 30.3115 25.3597C27.7907 24.8433 24.507 24.5651 20.8026 24.5651Z" fill="white"/>
</g>
<g opacity="0.25">
<path opacity="0.25" fill-rule="evenodd" clip-rule="evenodd" d="M31.7996 41.1199C34.8693 36.0365 35.6107 31.2325 35.7785 29.0748C36.6382 18.1344 6.644 43.6074 11.5646 46.1411C18.771 49.8526 27.2272 48.6974 31.7996 41.1199Z" fill="white"/>
<path opacity="0.25" d="M19.6057 48.2517C16.931 48.2517 14.1456 47.5419 11.5385 46.1947C11.0176 45.9242 10.8471 45.4178 11.0286 44.6694C12.2035 39.8247 27.9975 26.3016 33.742 26.3016C34.4301 26.3016 34.9565 26.4919 35.3102 26.8773C35.7408 27.3403 35.9146 28.0804 35.8393 29.0751C35.6902 30.9649 35.0065 35.9163 31.856 41.1493C29.0893 45.7251 24.7436 48.2517 19.6057 48.2517ZM33.742 26.4199C30.7004 26.4199 25.0296 30.2127 20.7448 33.767C15.541 38.0767 11.6848 42.4739 11.1436 44.6925C10.9758 45.3886 11.1304 45.8467 11.5902 46.0875C14.1786 47.4264 16.9513 48.1225 19.6057 48.1225C24.6968 48.1225 29.0167 45.6256 31.7498 41.0921C34.8943 35.8762 35.5758 30.9501 35.721 29.069C35.7975 28.1019 35.6292 27.3947 35.226 26.9615C34.8943 26.6052 34.3977 26.4199 33.742 26.4199Z" fill="white"/>
</g>
<path d="M95.6928 38.5083C94.8683 38.5083 94.1483 38.2026 93.7375 37.6764L94.6841 36.9572C94.8744 37.2107 95.365 37.3602 95.882 37.3129C96.3963 37.2657 96.7945 37.0496 96.959 36.7373C97.2076 36.2743 97.2203 35.725 97.0162 35.3087C96.8226 34.8969 96.4299 34.6374 95.8991 34.5384C94.5867 34.3168 93.0191 34.9744 91.7629 35.4885L91.4433 35.6348C91.1017 35.764 90.7679 35.9169 90.4252 36.0538C89.1722 36.5921 87.8637 37.1397 86.5255 37.5659C84.0333 38.3511 82.0406 38.3577 80.5896 37.5818C79.5159 37.0116 78.7706 36.0252 78.3834 34.6495L79.5308 34.3245C79.8234 35.394 80.3558 36.1104 81.144 36.536C82.2853 37.1397 84.0289 37.104 86.1762 36.4255C87.4583 36.0252 88.7317 35.4885 89.9599 34.9535C90.3058 34.8161 90.6463 34.6764 90.995 34.5356L91.3058 34.4031C92.7012 33.8164 94.4503 33.0802 96.0982 33.3771C97.0123 33.5305 97.7169 34.0364 98.0844 34.7721C98.454 35.5419 98.4375 36.4788 98.0079 37.2888C97.6641 37.9689 96.8952 38.4126 95.9893 38.5001C95.882 38.5034 95.7869 38.5083 95.6928 38.5083Z" fill="white"/>
<path d="M116.296 38.9031C115.473 38.9031 114.747 38.5902 114.335 38.0767L115.272 37.3465C115.473 37.5988 115.97 37.7479 116.481 37.7077C116.986 37.6527 117.393 37.4509 117.562 37.1276C117.803 36.6619 117.827 36.112 117.619 35.6975C117.42 35.2834 117.031 35.0299 116.49 34.9414C115.189 34.7006 113.615 35.3626 112.368 35.8877L112.042 36.0252C111.702 36.1676 111.354 36.3089 111.016 36.4464C109.754 36.977 108.462 37.5274 107.131 37.9557C104.627 38.7387 102.623 38.7535 101.181 37.9695C100.103 37.3993 99.3693 36.4134 98.9739 35.0459L100.111 34.7198C100.421 35.7799 100.952 36.4975 101.742 36.9286C102.884 37.5439 104.622 37.5076 106.767 36.8274C108.043 36.4139 109.323 35.8767 110.554 35.3609C110.892 35.2163 111.24 35.0673 111.577 34.9194L111.902 34.7902C113.305 34.2063 115.047 33.4711 116.699 33.7675C117.616 33.9264 118.323 34.4273 118.689 35.1724C119.06 35.9383 119.039 36.873 118.615 37.6775C118.251 38.3516 117.503 38.8113 116.582 38.8916C116.485 38.9031 116.391 38.9031 116.296 38.9031Z" fill="white"/>
<path d="M136.857 38.6298C136.045 38.6298 135.316 38.3158 134.914 37.8045L135.849 37.0699C136.046 37.3244 136.541 37.474 137.044 37.4295C137.56 37.3816 137.962 37.1771 138.128 36.8527C138.366 36.3875 138.392 35.836 138.183 35.4165C137.984 35.009 137.595 34.7577 137.063 34.6615C135.752 34.4267 134.186 35.0882 132.935 35.6144L132.612 35.7486C132.274 35.8877 131.932 36.0361 131.589 36.1703C130.339 36.702 129.033 37.2535 127.703 37.6769C125.214 38.467 123.208 38.4791 121.755 37.6972C120.675 37.1281 119.939 36.1379 119.553 34.7726L120.694 34.4416C120.994 35.5044 121.53 36.2253 122.308 36.6498C123.457 37.2662 125.196 37.2332 127.344 36.5497C128.63 36.1379 129.9 35.6023 131.128 35.0876C131.473 34.9419 131.809 34.7902 132.158 34.65L132.472 34.5152C133.87 33.9313 135.612 33.1967 137.266 33.4909C138.18 33.6525 138.889 34.1545 139.25 34.8985C139.631 35.6617 139.604 36.5992 139.179 37.4003C138.83 38.0777 138.065 38.5336 137.154 38.6138C137.053 38.6298 136.957 38.6298 136.857 38.6298Z" fill="white"/>
<path d="M157.347 39.0131C156.533 39.0131 155.803 38.72 155.394 38.1872L156.33 37.4669C156.536 37.7248 157.027 37.8743 157.528 37.8199C158.043 37.7836 158.449 37.5681 158.618 37.253C158.85 36.7774 158.87 36.2418 158.671 35.8212C158.471 35.4137 158.082 35.1416 157.548 35.0453C156.243 34.8282 154.679 35.4759 153.418 36.0015L153.103 36.1373C152.756 36.2759 152.418 36.4249 152.079 36.5706C150.823 37.104 149.527 37.6489 148.187 38.0734C145.695 38.863 143.697 38.8652 142.247 38.0954C141.172 37.5186 140.428 36.536 140.041 35.1592L141.181 34.8287C141.482 35.896 142.007 36.6267 142.804 37.0463C143.938 37.6533 145.681 37.6203 147.827 36.9379C149.112 36.536 150.382 35.9933 151.62 35.4764C151.961 35.3247 152.3 35.1812 152.643 35.0459L152.957 34.9095C154.356 34.3245 156.095 33.5987 157.749 33.8879C158.67 34.0408 159.366 34.5389 159.733 35.2845C160.114 36.0543 160.08 36.9907 159.668 37.8001C159.312 38.4797 158.557 38.9207 157.638 39.0114C157.538 39.0131 157.439 39.0131 157.347 39.0131Z" fill="white"/>
<path d="M78.7844 18.8104H79.9697L83.5944 23.7646L87.0662 18.8104H88.1866V28.4669H87.0123V20.6601L83.595 25.4631H83.4245L79.9565 20.7052V28.4669H78.785V18.8104H78.7844Z" fill="white"/>
<path d="M99.3858 18.673C102.182 18.673 104.294 20.7052 104.294 23.6458C104.294 26.5106 102.183 28.6038 99.3858 28.6038C96.5762 28.6038 94.4619 26.5754 94.4619 23.6458C94.4619 20.8471 96.508 18.673 99.3858 18.673ZM99.3858 27.5041C101.591 27.5041 103.065 25.8227 103.065 23.6458C103.065 21.3947 101.455 19.7787 99.3858 19.7787C97.2808 19.7787 95.6973 21.3947 95.6973 23.6458C95.6973 25.8304 97.3111 27.5041 99.3858 27.5041Z" fill="white"/>
<path d="M110.574 28.4669V18.8104C111.112 18.8104 112.492 18.7834 113.1 18.7834C115.859 18.7834 116.675 20.2741 116.675 21.7807C116.675 23.3516 115.564 24.8093 113.201 24.8093C112.812 24.8093 112.232 24.8016 111.754 24.757V28.4669H110.574ZM111.754 19.9156V23.6458C112.218 23.6837 112.671 23.709 113.155 23.709C114.577 23.709 115.432 22.9821 115.432 21.7653C115.432 20.626 114.746 19.8914 113.211 19.8914C112.825 19.8914 112.206 19.9073 111.754 19.9156Z" fill="white"/>
<path d="M122.952 18.8104H128.392V19.9156H124.125V23.036H127.984V24.1401H124.125V27.3672H128.537V28.4669H122.952V18.8104Z" fill="white"/>
<path d="M139.178 18.673C141.978 18.673 144.096 20.7052 144.096 23.6458C144.096 26.5106 141.978 28.6038 139.178 28.6038C136.381 28.6038 134.256 26.5754 134.256 23.6458C134.256 20.8471 136.309 18.673 139.178 18.673ZM139.178 27.5041C141.379 27.5041 142.86 25.8227 142.86 23.6458C142.86 21.3947 141.244 19.7787 139.178 19.7787C137.079 19.7787 135.496 21.3947 135.496 23.6458C135.496 25.8304 137.102 27.5041 139.178 27.5041Z" fill="white"/>
<path d="M156.853 24.0961H151.538V28.4669H150.37V18.8104H151.538V22.992H156.853V18.8104H158.021V28.4669H156.853V24.0961Z" fill="white"/>
</g>
<defs>
<clipPath id="clip0_85_602">
<rect width="160" height="61" fill="white"/>
</clipPath>
</defs>
</svg>
