<svg width="117" height="32" viewBox="0 0 117 32" fill="none" xmlns="http://www.w3.org/2000/svg">
<path d="M18.1882 13.8799H16.282C16.1628 13.8799 16.004 13.7999 16.004 13.6799C16.004 13.6399 16.004 13.6399 16.004 13.5999V5.27998C16.004 4.51998 15.7657 3.75998 15.3289 3.15999C14.8126 2.51999 14.0184 2.19999 13.2241 2.23999C12.827 2.23999 12.4696 2.31999 12.1122 2.51999C11.7945 2.67999 11.4768 2.91999 11.2385 3.19999C11.0003 3.47998 10.8017 3.79998 10.6826 4.15998C10.5634 4.51998 10.484 4.91998 10.484 5.27998V13.5999C10.484 13.7999 10.4046 13.9199 10.206 13.9199H8.33955C8.14099 13.9199 8.02186 13.8399 8.02186 13.6399V5.27998C8.02186 4.51998 7.82329 3.75998 7.38646 3.15999C6.94963 2.55999 6.27452 2.23999 5.32143 2.23999C4.92431 2.23999 4.48747 2.31999 4.13006 2.47999C3.73294 2.59999 3.41525 2.83999 3.17697 3.11999C2.9387 3.39998 2.77985 3.75998 2.66071 4.07998C2.54158 4.43998 2.46215 4.83998 2.46215 5.23998V13.5599C2.46215 13.7599 2.38273 13.8799 2.18417 13.8799H0.317697C0.119136 13.8799 0 13.7999 0 13.5999V5.27998C0 4.55998 0.119136 3.87998 0.357409 3.19999C0.595682 2.59999 0.913379 2.03999 1.38993 1.55999C1.82676 1.07999 2.42244 0.679997 3.01812 0.439998C3.73294 0.159999 4.48747 0.0399998 5.28172 0.0399998C6.03625 0.0399998 6.79078 0.199999 7.46588 0.519998C8.06157 0.839996 8.61754 1.23999 9.05437 1.75999C9.17351 1.91999 9.29264 1.91999 9.41178 1.79999C9.84861 1.27999 10.4046 0.879996 11.04 0.559997C11.7548 0.199999 12.5888 0.0399998 13.383 0.0399998C14.1375 0.0399998 14.9318 0.159999 15.6466 0.439998C16.2423 0.679997 16.7982 1.04 17.2351 1.51999C17.6719 1.99999 17.9896 2.55999 18.1882 3.15999C18.3867 3.83998 18.5059 4.55998 18.5059 5.23998V13.5199C18.4662 13.7999 18.3867 13.8799 18.1882 13.8799ZM39.2356 8.79996C39.2356 10.48 38.7591 11.7599 37.7663 12.6799C36.7735 13.5999 35.463 14.0399 33.795 14.0399C32.0874 14.0399 30.7372 13.5999 29.7841 12.6799C28.831 11.7599 28.3545 10.48 28.3545 8.79996V5.23998C28.3545 3.63998 28.831 2.35999 29.7444 1.43999C30.6578 0.519998 32.008 0.0399998 33.7553 0.0399998C35.5027 0.0399998 36.8529 0.479998 37.806 1.39999C38.7591 2.31999 39.2356 3.59998 39.2356 5.23998V8.79996ZM36.7735 5.23998C36.8132 4.43998 36.5352 3.63998 36.0586 3.03999C35.5821 2.47999 34.8276 2.19999 33.8348 2.15999C33.0405 2.11999 32.2463 2.43999 31.6903 2.99999C31.1343 3.59998 30.8563 4.39998 30.8961 5.19998V8.79996C30.8563 9.59995 31.0946 10.36 31.5712 10.9999C32.008 11.5599 32.7625 11.8799 33.8348 11.8799C34.907 11.8799 35.6615 11.5999 36.0983 11.0399C36.5352 10.44 36.7735 9.63996 36.7735 8.83996V5.23998ZM51.189 0.279999C51.3875 0.279999 51.5067 0.359998 51.5067 0.559997V2.03999C51.5067 2.11999 51.5464 2.19999 51.6258 2.23999C51.7052 2.27999 51.7846 2.23999 51.8641 2.11999C52.2612 1.55999 52.7377 1.11999 53.3334 0.719997C53.9688 0.279999 54.7233 0.0799996 55.4779 0.0799996C55.597 0.0799996 55.7559 0.0799996 55.9544 0.0799996C56.0736 0.0799996 56.1927 0.119999 56.3118 0.159999C56.4707 0.199999 56.5898 0.239999 56.5898 0.319999C56.6295 0.399998 56.6295 0.519998 56.5898 0.599997L56.2324 2.43999C56.1927 2.59999 56.153 2.71999 56.0736 2.71999C55.9941 2.75999 55.9147 2.75999 55.8353 2.71999C55.5573 2.63999 55.2396 2.63999 54.9616 2.63999C53.81 2.63999 53.0157 2.95999 52.5392 3.63998C52.0626 4.39998 51.8244 5.27998 51.8641 6.15997V13.5599C51.8641 13.7599 51.7846 13.8799 51.5861 13.8799H49.6402C49.4416 13.8799 49.3225 13.7999 49.3225 13.5999V0.559997C49.3225 0.359998 49.4019 0.239999 49.6005 0.239999L51.189 0.279999ZM75.7311 6.87997C75.7311 7.07997 75.6516 7.27997 75.5325 7.43997C75.4134 7.55996 75.2942 7.63996 75.1354 7.63996H67.9078C67.7489 7.63996 67.6298 7.67996 67.5107 7.79996C67.3915 7.91996 67.3518 8.03996 67.3518 8.19996V8.79996C67.3518 9.19996 67.3915 9.59995 67.5107 9.99995C67.7092 10.7599 68.2255 11.3999 68.9403 11.6799C69.3771 11.8399 69.8537 11.9199 70.3302 11.9199C70.9259 11.9199 71.4819 11.7599 71.9981 11.4799C72.5144 11.1999 72.9512 10.7999 73.2689 10.32C73.3881 10.12 73.6263 10.08 73.8249 10.16C73.8646 10.16 73.8646 10.2 73.9043 10.2L74.9765 10.9599C75.2148 11.1199 75.2942 11.2799 75.2148 11.4399C74.778 12.3199 74.0632 12.9999 73.1895 13.3999C72.3158 13.7999 71.3627 14.0399 70.3699 13.9999C68.702 13.9999 67.3518 13.5199 66.359 12.5999C65.3265 11.6399 64.8102 10.28 64.8499 8.87996V5.35998C64.8499 4.59998 64.9691 3.87998 65.2471 3.19999C65.4853 2.55999 65.8825 1.95999 66.359 1.47999C66.8356 0.999995 67.4312 0.639997 68.0666 0.399998C68.7417 0.119999 69.4963 0 70.2508 0C71.0053 0 71.7599 0.119999 72.4747 0.399998C73.1101 0.639997 73.7057 0.999995 74.222 1.47999C74.6986 1.95999 75.056 2.55999 75.2942 3.19999C75.5722 3.87998 75.6914 4.63998 75.6914 5.35998L75.7311 6.87997ZM70.3302 2.19999C68.7814 2.11999 67.5107 3.31998 67.4312 4.87998C67.4312 4.95998 67.4312 4.99998 67.4312 5.07998V5.27998C67.4312 5.35998 67.4709 5.47997 67.5107 5.51997C67.5901 5.59997 67.7489 5.63997 67.8681 5.63997H72.9512C73.1498 5.63997 73.2689 5.51997 73.2689 5.27998V4.99998C73.2689 4.27998 73.0306 3.55998 72.5144 2.99999C71.9584 2.43999 71.1245 2.11999 70.3302 2.19999ZM96.1431 8.79996C96.1431 10.48 95.6666 11.7599 94.6738 12.6799C93.681 13.5999 92.3705 14.0399 90.7026 14.0399C88.9949 14.0399 87.6447 13.5999 86.6916 12.6799C85.7385 11.7599 85.262 10.48 85.262 8.79996V5.23998C85.262 3.63998 85.7385 2.35999 86.6519 1.43999C87.5653 0.479998 88.9155 0.0399998 90.6628 0.0399998C92.4102 0.0399998 93.7604 0.479998 94.7135 1.39999C95.6666 2.31999 96.1431 3.59998 96.1431 5.23998V8.79996ZM93.6413 5.23998C93.681 4.43998 93.403 3.67998 92.9264 3.03999C92.4499 2.47999 91.6954 2.15999 90.7026 2.15999C89.9083 2.11999 89.1141 2.43999 88.5581 2.99999C88.0021 3.59998 87.7241 4.39998 87.7639 5.19998V8.79996C87.7241 9.59995 87.9624 10.36 88.439 10.9999C88.8758 11.5599 89.6303 11.8799 90.7026 11.8799C91.7748 11.8799 92.4896 11.5999 92.9661 10.9999C93.4427 10.36 93.7207 9.55995 93.681 8.75996V5.23998H93.6413ZM116.714 13.8799H114.808C114.689 13.8799 114.53 13.7999 114.53 13.6799C114.53 13.6399 114.53 13.6399 114.53 13.5999V5.27998C114.57 4.47998 114.292 3.67998 113.775 3.07999C113.18 2.47999 112.385 2.15999 111.551 2.19999C110.757 2.15999 109.963 2.47999 109.367 3.03999C108.811 3.63998 108.533 4.43998 108.573 5.23998V13.5599C108.613 13.7199 108.494 13.8399 108.335 13.8799C108.295 13.8799 108.295 13.8799 108.255 13.8799H106.429C106.23 13.8799 106.111 13.7999 106.111 13.5999V0.559997C106.111 0.359998 106.19 0.239999 106.389 0.239999H108.176C108.295 0.239999 108.414 0.319999 108.454 0.439998C108.454 0.479998 108.454 0.479998 108.454 0.519998V0.999995C108.454 1.19999 108.533 1.27999 108.652 1.27999C108.732 1.23999 108.811 1.19999 108.891 1.15999C109.764 0.439998 110.837 0.0399998 111.988 0.0799996C113.537 0.0799996 114.768 0.559997 115.642 1.47999C116.555 2.51999 117.071 3.87998 116.992 5.23998V13.5599C116.992 13.7999 116.913 13.8799 116.714 13.8799Z" fill="#28B0A9"/>
<path d="M16.5202 31.6399C16.56 31.7999 16.4408 31.9599 16.282 31.9599C16.2423 31.9599 16.2423 31.9599 16.2025 31.9599H14.892C14.7332 31.9999 14.5743 31.8799 14.5743 31.7199C14.5743 31.6799 14.5743 31.6799 14.5743 31.6399V23.7199C14.5346 23.5599 14.6538 23.3999 14.8126 23.3999C14.8523 23.3999 14.8523 23.3999 14.892 23.3999H19.7369C19.8164 23.3999 19.8958 23.4399 19.9355 23.4799C20.0149 23.5599 20.0149 23.6399 20.0149 23.7199V24.8399C20.0149 25.0399 19.9355 25.1599 19.7369 25.1599H16.7982C16.6791 25.1599 16.5997 25.1999 16.56 25.2399C16.5202 25.2799 16.5202 25.3599 16.5202 25.3999V26.4799C16.5202 26.5599 16.5202 26.6399 16.56 26.6799C16.5997 26.7199 16.6791 26.7599 16.7982 26.7599H19.1412C19.3001 26.7599 19.4192 26.8399 19.4589 26.9999C19.4589 27.0399 19.4589 27.0399 19.4589 27.0799V28.1999C19.4589 28.4399 19.3795 28.5199 19.1412 28.5199H16.7982C16.7188 28.5199 16.6394 28.5199 16.56 28.5999C16.5202 28.6799 16.4805 28.7599 16.4805 28.8799L16.5202 31.6399Z" fill="white"/>
<path d="M28.6719 31.9599C28.4337 31.9599 28.3542 31.8799 28.3542 31.6799V23.6799C28.3542 23.4799 28.4734 23.3999 28.6719 23.3999H29.9824C30.0619 23.3999 30.1413 23.3999 30.2207 23.4799C30.3001 23.5199 30.3399 23.6399 30.3001 23.7199V31.7199C30.3001 31.9199 30.181 31.9999 29.9824 31.9999H28.6719V31.9599Z" fill="white"/>
<path d="M44.5175 25.0799C44.4777 25.1599 44.3983 25.1599 44.3189 25.1599H42.8893C42.8098 25.1599 42.6907 25.1599 42.651 25.2399C42.6113 25.2799 42.6113 25.3599 42.6113 25.4399L42.5716 31.7199C42.5716 31.9199 42.4524 31.9999 42.2142 31.9999H40.9037C40.8242 31.9999 40.7448 31.9999 40.6654 31.9199C40.586 31.8799 40.5462 31.7999 40.586 31.7199V25.4399C40.586 25.3599 40.586 25.3199 40.5462 25.2399C40.5065 25.1999 40.4271 25.1599 40.308 25.1599H39.0372C38.9578 25.1599 38.8783 25.1199 38.7989 25.0799C38.7592 24.9999 38.7195 24.9199 38.7195 24.8399V23.7599C38.7195 23.6799 38.7195 23.5999 38.7989 23.5199C38.8386 23.4399 38.9578 23.4399 39.0372 23.4399H44.3189C44.4777 23.4399 44.5969 23.5599 44.5969 23.7599V24.8399C44.5572 24.9199 44.5175 24.9999 44.5175 25.0799Z" fill="white"/>
<path d="M58.8137 31.9599H57.94C57.8606 31.9599 57.7415 31.9599 57.6621 31.9599C57.5826 31.9599 57.5032 31.8799 57.4238 31.7599L54.8822 27.6399C54.8822 27.6399 54.8822 27.5999 54.8425 27.6399V27.6799V31.7199C54.8425 31.7999 54.8028 31.8799 54.7631 31.9199C54.6837 31.9599 54.6042 31.9599 54.4851 31.9599H53.2937C53.2143 31.9599 53.1349 31.9599 53.0555 31.9199C52.976 31.8799 52.9363 31.7999 52.976 31.7199V23.7199C52.976 23.5199 53.0952 23.3999 53.3334 23.3999H54.2468C54.366 23.3999 54.4454 23.3999 54.5645 23.4399C54.6439 23.5199 54.7234 23.5999 54.7631 23.6799L57.2252 27.7999C57.2252 27.8399 57.2649 27.8399 57.2649 27.8399L57.3047 27.7999V23.6799C57.3047 23.4799 57.4238 23.3999 57.6621 23.3999H58.8534C58.9329 23.3999 59.0123 23.3999 59.0917 23.4799C59.1711 23.5199 59.2108 23.6399 59.1711 23.7199V31.6799C59.1711 31.8799 59.052 31.9599 58.8137 31.9599Z" fill="white"/>
<path d="M73.2692 30.1999C73.4677 30.1999 73.5471 30.3199 73.5471 30.5199V31.6399C73.5471 31.8799 73.4677 31.9599 73.2692 31.9599H68.4243C68.2654 31.9999 68.1066 31.8799 68.1066 31.7199C68.1066 31.6799 68.1066 31.6799 68.1066 31.6399V23.7199C68.0669 23.5599 68.186 23.3999 68.3448 23.3999C68.3846 23.3999 68.3846 23.3999 68.4243 23.3999H73.15C73.3486 23.3999 73.428 23.4799 73.428 23.7199V24.8399C73.428 25.0399 73.3486 25.1599 73.15 25.1599H70.3702C70.2907 25.1599 70.1716 25.1599 70.0922 25.2399C70.0525 25.2799 70.0128 25.3599 70.0525 25.4399V26.3999C70.0525 26.4799 70.0525 26.5999 70.1319 26.6799C70.2113 26.7599 70.2907 26.7599 70.4099 26.7599H72.7132C72.7926 26.7599 72.872 26.7999 72.9515 26.8399C72.9912 26.9199 73.0309 26.9999 73.0309 27.0799V28.1599C73.0309 28.2399 73.0309 28.3199 72.9515 28.3999C72.9117 28.4799 72.7926 28.5199 72.7132 28.4799H70.3702C70.251 28.4799 70.1716 28.5199 70.1319 28.5599C70.0922 28.6399 70.0525 28.7199 70.0922 28.7999V29.9199C70.0922 30.0399 70.1319 30.1199 70.1716 30.1599C70.251 30.1999 70.3702 30.2399 70.4893 30.1999H73.2692Z" fill="white"/>
<path d="M88.0021 29.3999C88.0418 30.1599 87.6844 30.8799 87.1284 31.3599C86.8504 31.5999 86.5327 31.7599 86.1753 31.8399C85.8179 31.9599 85.4208 31.9999 85.0236 31.9999C84.5074 31.9999 83.9911 31.9199 83.5146 31.7599C82.9586 31.5999 82.4821 31.3199 82.0452 30.9599C81.9261 30.8799 81.8467 30.7999 81.807 30.6799C81.7672 30.5999 81.8467 30.4799 81.9658 30.3199L82.5218 29.5599C82.6409 29.3999 82.7601 29.3599 82.8395 29.3599C82.9586 29.3999 83.038 29.4399 83.1175 29.4799C83.2763 29.5999 83.4352 29.6799 83.594 29.7599C83.7529 29.8399 83.9514 29.9199 84.1103 29.9999C84.2691 30.0799 84.428 30.1199 84.6265 30.1599C84.7457 30.1999 84.9045 30.1999 85.0236 30.1999C85.2222 30.1999 85.4208 30.1999 85.5796 30.1199C85.6988 30.0799 85.8179 30.0399 85.8973 29.9599C85.9767 29.8799 86.0164 29.7999 86.0562 29.7199C86.0959 29.6399 86.0959 29.5599 86.0959 29.4799C86.0959 29.1599 85.8576 28.8399 85.5796 28.7199C85.1031 28.4799 84.6265 28.2799 84.1103 28.1199C83.872 28.0399 83.594 27.9199 83.3557 27.7999C83.1175 27.6799 82.9189 27.5199 82.7601 27.3199C82.6012 27.1199 82.4424 26.8799 82.3629 26.6399C82.2438 26.3599 82.2041 26.0399 82.2041 25.7599C82.2041 25.3999 82.2835 25.0399 82.4424 24.7199C82.6012 24.3999 82.7998 24.1599 83.038 23.9199C83.316 23.6799 83.594 23.5199 83.9514 23.4C84.3088 23.28 84.6662 23.2 85.0634 23.2C85.5399 23.2 86.0562 23.24 86.5327 23.4C86.8901 23.5199 87.2078 23.6399 87.4858 23.8399C87.5652 23.8799 87.6446 23.9599 87.6844 24.0399C87.6844 24.1199 87.6844 24.1999 87.5652 24.3999L87.1681 25.1999C87.1284 25.3599 86.9298 25.4799 86.7313 25.3999C86.6916 25.3999 86.6916 25.3999 86.6916 25.3599C86.493 25.2799 86.215 25.1599 85.937 25.0799C85.659 24.9999 85.3811 24.9199 85.1031 24.9199C84.8648 24.9199 84.6662 24.9599 84.4677 25.0799C84.2691 25.1999 84.15 25.4399 84.1897 25.6799C84.1897 25.8399 84.2294 25.9599 84.3485 26.0799C84.428 26.1999 84.5471 26.2799 84.6662 26.3599C84.7854 26.4399 84.9442 26.4799 85.0634 26.5599L85.4208 26.6799L86.3341 26.9999C86.6518 27.1199 86.9298 27.2799 87.2078 27.4799C87.4858 27.6799 87.7241 27.9199 87.9226 28.1999C87.9623 28.6399 88.0418 29.0399 88.0021 29.3999Z" fill="white"/>
<path d="M102.418 29.4002C102.418 29.8002 102.338 30.2002 102.179 30.5202C102.021 30.8402 101.822 31.1202 101.544 31.3202C101.266 31.5602 100.948 31.7202 100.591 31.8002C100.234 31.9202 99.8364 31.9602 99.4393 31.9602C98.923 31.9602 98.4067 31.8802 97.8905 31.7202C97.3345 31.5602 96.858 31.2802 96.4211 30.9202C96.302 30.8402 96.2226 30.7602 96.1829 30.6402C96.1829 30.5202 96.2226 30.4002 96.3417 30.2802L96.8977 29.6402C97.0168 29.4802 97.136 29.4402 97.2154 29.4402C97.3345 29.4802 97.4139 29.5202 97.4934 29.5602C97.6522 29.6802 97.8111 29.7602 97.9699 29.8402C98.1288 29.9202 98.3273 30.0002 98.4862 30.0802C98.645 30.1602 98.8039 30.2002 99.0024 30.2402C99.1216 30.2802 99.2804 30.2802 99.3995 30.2802C99.5981 30.2802 99.757 30.2802 99.9555 30.2002C100.075 30.1602 100.194 30.1202 100.273 30.0402C100.353 29.9602 100.392 29.8802 100.432 29.8002C100.432 29.7202 100.472 29.6402 100.472 29.5602C100.472 29.2402 100.234 28.9202 99.9555 28.8002C99.479 28.5602 99.0024 28.3603 98.4862 28.2003C98.2479 28.1203 97.9699 28.0003 97.7316 27.8803C97.4934 27.7603 97.2948 27.6003 97.0962 27.4003C96.9374 27.2003 96.7785 26.9603 96.6991 26.7203C96.58 26.4403 96.5403 26.1203 96.5403 25.8403C96.5403 25.4803 96.6197 25.1203 96.7785 24.8003C96.9374 24.4803 97.136 24.2403 97.4139 24.0003C97.6919 23.7603 97.9699 23.6003 98.3273 23.4803C98.6847 23.3603 99.0421 23.2803 99.4393 23.2803C99.9158 23.2803 100.432 23.3203 100.909 23.4803C101.266 23.5603 101.584 23.7203 101.901 23.9203C101.981 23.9603 102.06 24.0403 102.1 24.1203C102.14 24.2003 102.1 24.2803 101.981 24.4803L101.584 25.2803C101.544 25.4403 101.345 25.5603 101.147 25.4803C101.107 25.4803 101.107 25.4803 101.107 25.4403C100.869 25.3203 100.591 25.2403 100.353 25.1603C100.075 25.0803 99.7967 25.0003 99.5187 25.0003C99.2804 25.0003 99.0818 25.0403 98.8833 25.1603C98.6847 25.2803 98.5656 25.5203 98.6053 25.7603C98.6053 25.9203 98.645 26.0403 98.7642 26.1603C98.8436 26.2803 98.9627 26.3603 99.0818 26.4403C99.201 26.5203 99.3598 26.5603 99.479 26.6403L99.8364 26.7603L100.75 27.0803C101.067 27.2003 101.345 27.3603 101.623 27.5603C101.901 27.7603 102.1 28.0003 102.299 28.2802C102.338 28.6402 102.457 29.0402 102.418 29.4002Z" fill="white"/>
</svg>
